<?xml version="1.0" standalone="no"?>
<!DOCTYPE svg PUBLIC "-//W3C//DTD SVG 20010904//EN" "http://www.w3.org/TR/2001/REC-SVG-20010904/DTD/svg10.dtd">
<!-- Created using Krita: https://krita.org -->
<svg xmlns="http://www.w3.org/2000/svg" 
    xmlns:xlink="http://www.w3.org/1999/xlink"
    xmlns:krita="http://krita.org/namespaces/svg/krita"
    xmlns:sodipodi="http://sodipodi.sourceforge.net/DTD/sodipodi-0.dtd"
    width="77.76pt"
    height="77.76pt"
    viewBox="0 0 77.76 77.76">
<defs>
  <meshgradient id="meshgradient0" gradientUnits="userSpaceOnUse" x="0" y="0" type="bilinear">
   <meshrow id="meshrow0">
    <meshpatch id="meshpatch0">
     <stop path="C 0.4218566666,0 0.8437133334,0 1.26557,0" stop-color="#ffffff" stop-opacity="1"/>
     <stop path="C 1.26557,0 1.26557,0 1.26557,0" stop-color="#000000" stop-opacity="1"/>
     <stop path="C 0.8437133334,0 0.4218566666,0 0,0" stop-color="#ffffff" stop-opacity="1"/>
     <stop path="C 0,0 0,0 0,0" stop-color="#000000" stop-opacity="1"/>
    </meshpatch>
   </meshrow>
  </meshgradient>
  <meshgradient id="meshgradient1" gradientUnits="userSpaceOnUse" x="0" y="0" type="bilinear">
   <meshrow id="meshrow1">
    <meshpatch id="meshpatch1">
     <stop path="C 0.5189633333,0 1.037926667,0 1.55689,0" stop-color="#ffffff" stop-opacity="1"/>
     <stop path="C 1.55689,0 1.55689,0 1.55689,0" stop-color="#000000" stop-opacity="1"/>
     <stop path="C 1.037926667,0 0.5189633333,0 0,0" stop-color="#ffffff" stop-opacity="1"/>
     <stop path="C 0,0 0,0 0,0" stop-color="#000000" stop-opacity="1"/>
    </meshpatch>
   </meshrow>
  </meshgradient>
  <meshgradient id="meshgradient2" gradientUnits="userSpaceOnUse" x="0" y="0" type="bilinear">
   <meshrow id="meshrow2">
    <meshpatch id="meshpatch2">
     <stop path="C 0,0 0,0 0,0" stop-color="#ffffff" stop-opacity="1"/>
     <stop path="C 0,0.45468 0,0.90936 0,1.36404" stop-color="#000000" stop-opacity="1"/>
     <stop path="C 0,1.36404 0,1.36404 0,1.36404" stop-color="#ffffff" stop-opacity="1"/>
     <stop path="C 0,0.90936 0,0.45468 0,0" stop-color="#000000" stop-opacity="1"/>
    </meshpatch>
   </meshrow>
  </meshgradient>
  <meshgradient id="meshgradient3" gradientUnits="userSpaceOnUse" x="0" y="0" type="bilinear">
   <meshrow id="meshrow3">
    <meshpatch id="meshpatch3">
     <stop path="C 0.4512,0 0.9024,0 1.3536,0" stop-color="#ffffff" stop-opacity="1"/>
     <stop path="C 1.3536,0 1.3536,0 1.3536,0" stop-color="#000000" stop-opacity="1"/>
     <stop path="C 0.9024,0 0.4512,0 0,0" stop-color="#ffffff" stop-opacity="1"/>
     <stop path="C 0,0 0,0 0,0" stop-color="#000000" stop-opacity="1"/>
    </meshpatch>
   </meshrow>
  </meshgradient>
  <meshgradient id="meshgradient4" gradientUnits="userSpaceOnUse" x="0" y="0" type="bilinear">
   <meshrow id="meshrow4">
    <meshpatch id="meshpatch4">
     <stop path="C 0.4241433333,0 0.8482866667,0 1.27243,0" stop-color="#ffffff" stop-opacity="1"/>
     <stop path="C 1.27243,3.070173333 1.27243,6.140346667 1.27243,9.21052" stop-color="#000000" stop-opacity="1"/>
     <stop path="C 0.8482866667,9.21052 0.4241433333,9.21052 0,9.21052" stop-color="#ffffff" stop-opacity="1"/>
     <stop path="C 0,6.140346667 0,3.070173333 0,0" stop-color="#000000" stop-opacity="1"/>
    </meshpatch>
   </meshrow>
  </meshgradient>
  <meshgradient id="meshgradient5" gradientUnits="userSpaceOnUse" x="0" y="0" type="bilinear">
   <meshrow id="meshrow5">
    <meshpatch id="meshpatch5">
     <stop path="C 0.6509366666,0 1.301873333,0 1.95281,0" stop-color="#ffffff" stop-opacity="1"/>
     <stop path="C 1.95281,3.034383333 1.95281,6.068766667 1.95281,9.10315" stop-color="#000000" stop-opacity="1"/>
     <stop path="C 1.301873333,9.10315 0.6509366666,9.10315 0,9.10315" stop-color="#ffffff" stop-opacity="1"/>
     <stop path="C 0,6.068766667 0,3.034383333 0,0" stop-color="#000000" stop-opacity="1"/>
    </meshpatch>
   </meshrow>
  </meshgradient>
  <meshgradient id="meshgradient6" gradientUnits="userSpaceOnUse" x="0" y="0" type="bilinear">
   <meshrow id="meshrow6">
    <meshpatch id="meshpatch6">
     <stop path="C 0.3127353333,0 0.6254706667,0 0.938206,0" stop-color="#ffffff" stop-opacity="1"/>
     <stop path="C 0.938206,0 0.938206,0 0.938206,0" stop-color="#000000" stop-opacity="1"/>
     <stop path="C 0.6254706667,0 0.3127353333,0 0,0" stop-color="#ffffff" stop-opacity="1"/>
     <stop path="C 0,0 0,0 0,0" stop-color="#000000" stop-opacity="1"/>
    </meshpatch>
   </meshrow>
  </meshgradient>
  <meshgradient id="meshgradient7" gradientUnits="userSpaceOnUse" x="0" y="7.105427357601e-15" type="bilinear">
   <meshrow id="meshrow7">
    <meshpatch id="meshpatch7">
     <stop path="C 0.4218566666,7.105427358e-15 0.8437133334,7.105427358e-15 1.26557,7.105427358e-15" stop-color="#ffffff" stop-opacity="1"/>
     <stop path="C 1.26557,7.105427358e-15 1.26557,7.105427358e-15 1.26557,7.105427358e-15" stop-color="#000000" stop-opacity="1"/>
     <stop path="C 0.8437133334,7.105427358e-15 0.4218566666,7.105427358e-15 0,7.105427358e-15" stop-color="#ffffff" stop-opacity="1"/>
     <stop path="C 0,7.105427358e-15 0,7.105427358e-15 0,7.105427358e-15" stop-color="#000000" stop-opacity="1"/>
    </meshpatch>
   </meshrow>
  </meshgradient>
  <meshgradient id="meshgradient8" gradientUnits="userSpaceOnUse" x="1.77635683940025e-15" y="-7.105427357601e-15" type="bilinear">
   <meshrow id="meshrow8">
    <meshpatch id="meshpatch8">
     <stop path="C 0.5189633333,-7.105427358e-15 1.037926667,-7.105427358e-15 1.55689,-7.105427358e-15" stop-color="#ffffff" stop-opacity="1"/>
     <stop path="C 1.55689,-7.105427358e-15 1.55689,-7.105427358e-15 1.55689,-7.105427358e-15" stop-color="#000000" stop-opacity="1"/>
     <stop path="C 1.037926667,-7.105427358e-15 0.5189633333,-7.105427358e-15 1.776356839e-15,-7.105427358e-15" stop-color="#ffffff" stop-opacity="1"/>
     <stop path="C 1.776356839e-15,-7.105427358e-15 1.776356839e-15,-7.105427358e-15 1.776356839e-15,-7.105427358e-15" stop-color="#000000" stop-opacity="1"/>
    </meshpatch>
   </meshrow>
  </meshgradient>
  <meshgradient id="meshgradient9" gradientUnits="userSpaceOnUse" x="1.77635683940025e-15" y="3.5527136788005e-15" type="bilinear">
   <meshrow id="meshrow9">
    <meshpatch id="meshpatch9">
     <stop path="C 1.776356839e-15,3.552713679e-15 1.776356839e-15,3.552713679e-15 1.776356839e-15,3.552713679e-15" stop-color="#ffffff" stop-opacity="1"/>
     <stop path="C 1.776356839e-15,0.45468 1.776356839e-15,0.90936 1.776356839e-15,1.36404" stop-color="#000000" stop-opacity="1"/>
     <stop path="C 1.776356839e-15,1.36404 1.776356839e-15,1.36404 1.776356839e-15,1.36404" stop-color="#ffffff" stop-opacity="1"/>
     <stop path="C 1.776356839e-15,0.90936 1.776356839e-15,0.45468 1.776356839e-15,3.552713679e-15" stop-color="#000000" stop-opacity="1"/>
    </meshpatch>
   </meshrow>
  </meshgradient>
  <meshgradient id="meshgradient10" gradientUnits="userSpaceOnUse" x="1.77635683940025e-15" y="-7.105427357601e-15" type="bilinear">
   <meshrow id="meshrow10">
    <meshpatch id="meshpatch10">
     <stop path="C 0.4512,-7.105427358e-15 0.9024,-7.105427358e-15 1.3536,-7.105427358e-15" stop-color="#ffffff" stop-opacity="1"/>
     <stop path="C 1.3536,-7.105427358e-15 1.3536,-7.105427358e-15 1.3536,-7.105427358e-15" stop-color="#000000" stop-opacity="1"/>
     <stop path="C 0.9024,-7.105427358e-15 0.4512,-7.105427358e-15 1.776356839e-15,-7.105427358e-15" stop-color="#ffffff" stop-opacity="1"/>
     <stop path="C 1.776356839e-15,-7.105427358e-15 1.776356839e-15,-7.105427358e-15 1.776356839e-15,-7.105427358e-15" stop-color="#000000" stop-opacity="1"/>
    </meshpatch>
   </meshrow>
  </meshgradient>
  <meshgradient id="meshgradient11" gradientUnits="userSpaceOnUse" x="0" y="3.5527136788005e-15" type="bilinear">
   <meshrow id="meshrow11">
    <meshpatch id="meshpatch11">
     <stop path="C 0.4241433333,3.552713679e-15 0.8482866667,3.552713679e-15 1.27243,3.552713679e-15" stop-color="#ffffff" stop-opacity="1"/>
     <stop path="C 1.27243,3.070173333 1.27243,6.140346667 1.27243,9.21052" stop-color="#000000" stop-opacity="1"/>
     <stop path="C 0.8482866667,9.21052 0.4241433333,9.21052 0,9.21052" stop-color="#ffffff" stop-opacity="1"/>
     <stop path="C 0,6.140346667 0,3.070173333 0,3.552713679e-15" stop-color="#000000" stop-opacity="1"/>
    </meshpatch>
   </meshrow>
  </meshgradient>
  <meshgradient id="meshgradient12" gradientUnits="userSpaceOnUse" x="1.77635683940025e-15" y="-3.5527136788005e-15" type="bilinear">
   <meshrow id="meshrow12">
    <meshpatch id="meshpatch12">
     <stop path="C 0.6509366666,-3.552713679e-15 1.301873333,-3.552713679e-15 1.95281,-3.552713679e-15" stop-color="#ffffff" stop-opacity="1"/>
     <stop path="C 1.95281,3.034383333 1.95281,6.068766667 1.95281,9.10315" stop-color="#000000" stop-opacity="1"/>
     <stop path="C 1.301873333,9.10315 0.6509366666,9.10315 1.776356839e-15,9.10315" stop-color="#ffffff" stop-opacity="1"/>
     <stop path="C 1.776356839e-15,6.068766667 1.776356839e-15,3.034383333 1.776356839e-15,-3.552713679e-15" stop-color="#000000" stop-opacity="1"/>
    </meshpatch>
   </meshrow>
  </meshgradient>
  <meshgradient id="meshgradient13" gradientUnits="userSpaceOnUse" x="0" y="0" type="bilinear">
   <meshrow id="meshrow13">
    <meshpatch id="meshpatch13">
     <stop path="C 0.3127353333,0 0.6254706667,0 0.938206,0" stop-color="#ffffff" stop-opacity="1"/>
     <stop path="C 0.938206,0 0.938206,0 0.938206,0" stop-color="#000000" stop-opacity="1"/>
     <stop path="C 0.6254706667,0 0.3127353333,0 0,0" stop-color="#ffffff" stop-opacity="1"/>
     <stop path="C 0,0 0,0 0,0" stop-color="#000000" stop-opacity="1"/>
    </meshpatch>
   </meshrow>
  </meshgradient>
 </defs>
<path id="shape0" transform="matrix(1.65247178975844 0.283337777606238 -0.280183538518741 1.55223159867445 11.6650291732826 34.0146994933207)" fill="none" stroke="#000000" stroke-width="0.24336" stroke-linecap="square" stroke-linejoin="miter" stroke-miterlimit="2" d="M0 9.02983L0.0289758 0" sodipodi:nodetypes="cc"/><path id="shape1" transform="matrix(1.65247178975844 0.283337777606238 -0.280183538518741 1.55223159867445 9.13338612744908 48.1663065472255)" fill="none" stroke="#000000" stroke-width="0.24336" stroke-linecap="square" stroke-linejoin="miter" stroke-miterlimit="2" d="M0 0L1.25857 0.00744706" sodipodi:nodetypes="cc"/><path id="shape2" transform="matrix(1.65247178975844 0.283337777606238 -0.280183538518741 1.55223159867445 13.7465561679272 34.5817659527165)" fill="none" stroke="#000000" stroke-width="0.24336" stroke-linecap="square" stroke-linejoin="miter" stroke-miterlimit="2" d="M3.55271e-15 9.00063L0 0" sodipodi:nodetypes="cc"/><path id="shape3" transform="matrix(1.65247178975844 0.283337777606238 -0.280183538518741 1.55223159867445 11.7600801504897 34.0309972194348)" fill="none" stroke="#000000" stroke-width="0.24336" stroke-linecap="square" stroke-linejoin="miter" stroke-miterlimit="2" d="M0 0L1.09575 0" sodipodi:nodetypes="cc"/><path id="shape4" transform="matrix(1.65247178975844 0.283337777606238 -0.280183538518741 1.55223159867445 12.5676252860542 41.3231012635776)" fill="#000000" fill-rule="evenodd" stroke="#000000" stroke-width="0.24336" stroke-linecap="square" stroke-linejoin="miter" stroke-miterlimit="2" d="M0 0L2.58578 4.4787" sodipodi:nodetypes="cc"/><path id="shape5" transform="matrix(1.65247178975844 0.283337777606238 -0.280183538518741 1.55223159867445 15.6274807631625 49.080866268799)" fill="none" stroke="#000000" stroke-width="0.24336" stroke-linecap="square" stroke-linejoin="miter" stroke-miterlimit="2" d="M0 0L1.29062 0" sodipodi:nodetypes="cc"/><path id="shape6" transform="matrix(1.65247178975844 0.283337777606238 -0.280183538518741 1.55223159867445 14.1682715808983 39.6008547527331)" fill="#000000" fill-rule="evenodd" stroke="#000000" stroke-width="0.24336" stroke-linecap="square" stroke-linejoin="miter" stroke-miterlimit="2" d="M3.41656 5.74271L0 0" sodipodi:nodetypes="cc"/><rect id="shape7" transform="matrix(1.65247178975844 0.283337777606238 -0.280183538518741 1.55223159867445 11.694383447942 34.0197326654428)" fill="#000000" fill-rule="evenodd" stroke="#000000" stroke-width="0.24336" stroke-linecap="square" stroke-linejoin="bevel" width="1.224" height="9.072" rx="0.144" ry="0.144"/><rect id="shape8" transform="matrix(1.65247178975844 0.283337777606238 -0.280183538518741 1.55223159867445 12.569196996303 40.0459322155776)" fill="#000000" fill-rule="evenodd" stroke="#000000" stroke-width="0.24336" stroke-linecap="square" stroke-linejoin="bevel" width="1e-06" height="0.0720000000000027" rx="5e-07" ry="0.0360000000000014"/><path id="shape9" transform="matrix(1.65247178975844 0.283337777606238 -0.280183538518741 1.55223159867445 12.4767682075081 40.1266422839337)" fill="#000000" fill-rule="evenodd" stroke="#000000" stroke-width="0.24336" stroke-linecap="square" stroke-linejoin="bevel" d="M0.160359 0.865492L2.83302 5.18628L4.2718 5.21566L1.34672 0.0400691L0 0Z" sodipodi:nodetypes="cccccc"/><path id="shape10" transform="matrix(1.53164507240112 0.192438921002682 -0.201984861497745 1.45925849544539 42.2178886337708 49.5576165894026)" fill="url(#meshgradient0)" fill-rule="evenodd" stroke="#000000" stroke-width="0.24336" stroke-linecap="square" stroke-linejoin="miter" stroke-miterlimit="2" d="M0 0L1.26557 0" sodipodi:nodetypes="cc"/><path id="shape11" transform="matrix(1.53164507240112 0.192438921002682 -0.201984861497745 1.45925849544539 44.5704272864481 47.8860803192573)" fill="none" stroke="#000000" stroke-width="0.24336" stroke-linecap="square" stroke-linejoin="miter" stroke-miterlimit="2" d="M0 1.29062L0 0" sodipodi:nodetypes="cc"/><path id="shape12" transform="matrix(1.53164507240112 0.192438921002682 -0.201984861497745 1.45925849544539 44.573862685716 47.8291278840553)" fill="url(#meshgradient1)" fill-rule="evenodd" stroke="#000000" stroke-width="0.24336" stroke-linecap="square" stroke-linejoin="miter" stroke-miterlimit="2" d="M0 0L1.55689 0" sodipodi:nodetypes="cc"/><path id="shape13" transform="matrix(1.53164507240112 0.192438921002682 -0.201984861497745 1.45925849544539 46.9981742417658 48.0795240326098)" fill="url(#meshgradient2)" fill-rule="evenodd" stroke="#000000" stroke-width="0.24336" stroke-linecap="square" stroke-linejoin="miter" stroke-miterlimit="2" d="M0 0L0 1.36404" sodipodi:nodetypes="cc"/><path id="shape14" transform="matrix(1.53164507240111 0.192438921002678 -0.201984861497742 1.45925849544538 46.816942314141 50.0876280180066)" fill="url(#meshgradient3)" fill-rule="evenodd" stroke="#000000" stroke-width="0.24336" stroke-linecap="square" stroke-linejoin="miter" stroke-miterlimit="2" d="M0 0L1.3536 0" sodipodi:nodetypes="cc"/><path id="shape15" transform="matrix(1.53164507240112 0.192438921002682 -0.201984861497745 1.45925849544539 43.9638958361574 36.0869803642688)" fill="url(#meshgradient4)" fill-rule="evenodd" stroke="#000000" stroke-width="0.24336" stroke-linecap="square" stroke-linejoin="miter" stroke-miterlimit="2" d="M0 9.21052L1.27243 0" sodipodi:nodetypes="cc"/><path id="shape16" transform="matrix(1.53164507240111 0.192438921002678 -0.201984861497742 1.45925849544538 47.9662348673093 36.5705051811434)" fill="url(#meshgradient5)" fill-rule="evenodd" stroke="#000000" stroke-width="0.24336" stroke-linecap="square" stroke-linejoin="miter" stroke-miterlimit="2" d="M1.95281 9.10315L0 0" sodipodi:nodetypes="cc"/><path id="shape17" transform="matrix(1.53164507240112 0.192438921002682 -0.201984861497745 1.45925849544539 46.1343349939163 36.3403416521558)" fill="url(#meshgradient6)" fill-rule="evenodd" stroke="#000000" stroke-width="0.24336" stroke-linecap="square" stroke-linejoin="miter" stroke-miterlimit="2" d="M0 0L0.938206 0" sodipodi:nodetypes="cc"/><path id="shape18" transform="matrix(1.53164507240112 0.192438921002682 -0.201984861497745 1.45925849544539 45.6510380339211 38.9689864234093)" fill="none" stroke="#000000" stroke-width="0.24336" stroke-linecap="square" stroke-linejoin="bevel" d="M0 4.91591L1.61756 4.92893L0.632957 0C0.672819 0.104442 0.461834 1.74308 0 4.91591Z" sodipodi:nodetypes="cccc"/><rect id="shape19" transform="matrix(1.50280656419388 0.341270831544625 -0.358199585009111 1.43178291454504 45.7037214776069 36.2758198646049)" fill="#000000" fill-rule="evenodd" stroke="#000000" stroke-width="0.24336" stroke-linecap="square" stroke-linejoin="bevel" width="0.987366361609968" height="9.07966363588528" rx="0.151902517170764" ry="0.134513535346448"/><rect id="shape20" transform="matrix(1.54076202947242 -0.107734896209979 0.113079090113706 1.46794457898957 46.0944560809945 36.7049744714738)" fill="#000000" fill-rule="evenodd" stroke="#000000" stroke-width="0.24336" stroke-linecap="square" stroke-linejoin="bevel" width="1.06271295035811" height="9.06029368223687" rx="0.118079216706457" ry="0.12760977017235"/><rect id="shape21" transform="matrix(1.53164507240112 0.192438921002682 -0.201984861497745 1.45925849544539 43.0660256461535 46.0028514870359)" fill="#000000" fill-rule="evenodd" stroke="#000000" stroke-width="0.24336" stroke-linecap="square" stroke-linejoin="bevel" width="3.816" height="1.08000000000001" rx="0.144" ry="0.144"/><rect id="shape22" transform="matrix(1.53164507240112 0.192438921002682 -0.201984861497745 1.45925849544539 42.1740816544391 49.2044940396214)" fill="#000000" fill-rule="evenodd" stroke="#000000" stroke-width="0.24336" stroke-linecap="square" stroke-linejoin="bevel" width="0.431999999999999" height="1e-06" rx="0.144" ry="5e-07"/><rect id="shape23" transform="matrix(1.53164507240112 0.192438921002682 -0.201984861497745 1.45925849544539 43.747065707475 49.1883392486478)" fill="#000000" fill-rule="evenodd" stroke="#000000" stroke-width="0.24336" stroke-linecap="square" stroke-linejoin="bevel" width="0.359999999999999" height="0.359999999999999" rx="0.144" ry="0.144"/><rect id="shape24" transform="matrix(1.53164507240112 0.192438921002682 -0.201984861497745 1.45925849544539 47.0699619738894 49.4989407063419)" fill="#000000" fill-rule="evenodd" stroke="#000000" stroke-width="0.24336" stroke-linecap="square" stroke-linejoin="bevel" width="0.359999999999999" height="0.359999999999999" rx="0.144" ry="0.144"/><path id="shape01" transform="matrix(1.55357241546751 0.122775754841413 -0.130216091926662 1.45781275916383 49.6289984350012 36.7604876549665)" fill="none" stroke="#000000" stroke-width="0.24336" stroke-linecap="square" stroke-linejoin="miter" stroke-miterlimit="2" d="M0 9.02983L0.0289758 0" sodipodi:nodetypes="cc"/><path id="shape110" transform="matrix(1.55357241546751 0.122775754841413 -0.130216091926662 1.45781275916383 48.4629119995271 50.049367497768)" fill="none" stroke="#000000" stroke-width="0.24336" stroke-linecap="square" stroke-linejoin="miter" stroke-miterlimit="2" d="M0 0L1.25857 0.00744706" sodipodi:nodetypes="cc"/><rect id="shape25" transform="matrix(1.59406131414171 -0.15337962451267 0.155330327917663 1.46535144048317 23.1016661772638 36.9232357966375)" fill="#000000" fill-rule="evenodd" stroke="#000000" stroke-width="0.24336" stroke-linecap="square" stroke-linejoin="bevel" width="4.536" height="1.224" rx="0.144" ry="0.144"/><rect id="shape26" transform="matrix(1.48034173916027 0.552635387946064 -0.611348770600022 1.36578705563183 28.4859759364231 37.1141326422306)" fill="#000000" fill-rule="evenodd" stroke="#000000" stroke-width="0.24336" stroke-linecap="square" stroke-linejoin="bevel" width="1.368" height="6.59177265140437" rx="0.144" ry="0.110786094981586"/><rect id="shape27" transform="matrix(1.59406131414171 -0.15337962451267 0.155330327917663 1.46535144048317 24.4786472705682 45.9917438071787)" fill="#000000" fill-rule="evenodd" stroke="#000000" stroke-width="0.24336" stroke-linecap="square" stroke-linejoin="bevel" width="4.824" height="1.152" rx="0.144" ry="0.144"/><path id="shape28" transform="matrix(1.59406131414171 -0.15337962451267 0.155330327917663 1.46535144048317 21.7895530482701 46.2963601190602)" fill="#000000" fill-rule="evenodd" stroke="#000000" stroke-width="0.24336" stroke-linecap="square" stroke-linejoin="bevel" d="M6.70678 0C8.27072 0.441641 9.17078 1.10305 9.40694 1.98422C9.76119 3.30597 9.46931 4.40557 8.45896 5.04288C7.4486 5.6802 5.43538 5.62859 4.03585 5.03166C2.63632 4.43474 1.04566 5.07425 0.666468 5.42432C0.287273 5.7744 0.21051 6.14987 0.289643 6.68626C0.342398 7.04386 1.41068 7.77892 3.4945 8.89146L3.57682 7.60112C4.12649 8.33789 4.74601 8.41015 5.22582 9.82948C3.808 10.1541 3.27829 9.87287 2.30453 9.89456L3.09285 9.23032C1.29108 8.27417 0.303175 7.56504 0.129147 7.10294C-0.131896 6.40978 0.0168854 5.49619 0.448469 4.97332C0.880052 4.45045 2.5041 4.32029 3.33234 4.44147C4.16058 4.56265 6.38835 5.3952 7.38374 4.90824C8.37912 4.42128 8.48141 4.13179 8.51134 3.27456C8.54128 2.41732 8.65354 2.22209 6.90226 1.29529C5.02126 0.8936 5.03782 0.352319 6.70678 0Z" sodipodi:nodetypes="czzzzzccccczzzzzcc"/><path id="shape29" transform="matrix(1.52207665024401 0.252102068337309 -0.26460760168 1.45014228335921 33.7463414347413 37.6541014585389)" fill="#000000" fill-rule="evenodd" stroke="#000000" stroke-width="0.24336" stroke-linecap="square" stroke-linejoin="bevel" d="M2.35019 4.43615L2.34564 3.40093L5.65412 3.38047L5.71325 5.74824C3.52131 6.96624 1.87566 6.92896 0.776316 5.6364C-0.8727 3.69756 0.537616 0.947528 1.06289 0.705821C1.58816 0.464114 2.19738 -0.155212 3.59958 0.0361355C5.00178 0.227482 5.44943 0.613074 6.19844 1.45871C5.9162 1.6049 5.55938 1.79449 5.12796 2.02746C4.66702 1.42006 3.91395 1.16364 2.86875 1.25821C1.30094 1.40006 1.16751 3.21135 1.23119 3.57415C1.29488 3.93695 1.40556 4.68029 1.99387 4.9749C2.58217 5.2695 3.16593 5.41954 3.83157 5.33088C4.27532 5.27178 4.52854 5.1813 4.59121 5.05946L4.55937 4.32567C4.55432 4.32567 3.81792 4.3625 2.35019 4.43615Z" sodipodi:nodetypes="cccczzzcczzzzccc"/><path id="shape30" transform="matrix(1.52207665024401 0.252102068337309 -0.26460760168 1.45014228335921 32.4111575731093 36.1717688075031)" fill="#000000" fill-rule="evenodd" stroke="#000000" stroke-width="0.24336" stroke-linecap="square" stroke-linejoin="bevel" d="M1.7928 2.1983L1.34877 1.65673L0 3.44961L0.590924 0.664695L2.278 0L3.14269 1.20526Z" sodipodi:nodetypes="ccccccc"/><path id="shape31" transform="matrix(1.52207665024401 0.252102068337309 -0.26460760168 1.45014228335921 39.1666641015955 36.2700229482943)" fill="#000000" fill-rule="evenodd" stroke="#000000" stroke-width="0.24336" stroke-linecap="square" stroke-linejoin="bevel" d="M0 1.56063L0.567554 0L3.12266 0.304318L3.68799 2.82896L2.14891 1.15721L1.8184 2.23033Z" sodipodi:nodetypes="ccccccc"/><rect id="shape32" transform="matrix(1.45512172315791 -0.361101887178018 0.358203354580864 1.31022957850797 55.3564480518605 38.264170823404)" fill="#000000" fill-rule="evenodd" stroke="#000000" stroke-width="0.24336" stroke-linecap="square" stroke-linejoin="bevel" width="1.224" height="9.36" rx="0.144" ry="0.144"/><rect id="shape33" transform="matrix(1.45512172315791 -0.361101887178018 0.358203354580864 1.31022957850797 58.5061187143951 48.9665365320439)" fill="#000000" fill-rule="evenodd" stroke="#000000" stroke-width="0.24336" stroke-linecap="square" stroke-linejoin="bevel" width="3.6" height="1.224" rx="0.144" ry="0.144"/><rect id="shape34" transform="matrix(1.45512172315791 -0.361101887178018 0.358203354580864 1.31022957850797 57.376149080927 43.6056928638691)" fill="#000000" fill-rule="evenodd" stroke="#000000" stroke-width="0.24336" stroke-linecap="square" stroke-linejoin="bevel" width="3.456" height="1.224" rx="0.144" ry="0.144"/><rect id="shape35" transform="matrix(1.45512172315791 -0.361101887178018 0.358203354580864 1.31022957850797 56.1156200418618 38.1765120019188)" fill="#000000" fill-rule="evenodd" stroke="#000000" stroke-width="0.24336" stroke-linecap="square" stroke-linejoin="bevel" width="3.312" height="1.15199999999999" rx="0.144" ry="0.144"/><rect id="shape36" transform="matrix(1.56456674325416 -0.165234547903997 0.167202339140466 1.4370893519922 62.7957862143091 36.71698328867)" fill="#000000" fill-rule="evenodd" stroke="#000000" stroke-width="0.24336" stroke-linecap="square" stroke-linejoin="bevel" width="1.224" height="9.288" rx="0.144" ry="0.144"/><rect id="shape37" transform="matrix(1.56456674325416 -0.165234547903997 0.167202339140466 1.4370893519922 64.518167998935 48.5803924608182)" fill="#000000" fill-rule="evenodd" stroke="#000000" stroke-width="0.24336" stroke-linecap="square" stroke-linejoin="bevel" width="4.176" height="1.08" rx="0.144" ry="0.144"/><path id="shape02" transform="matrix(1.58931713567241 -0.142903281974707 0.150901634470208 1.51828496208563 18.4646401070357 49.4738845066261)" fill="url(#meshgradient7)" fill-rule="evenodd" stroke="#000000" stroke-width="0.24336" stroke-linecap="square" stroke-linejoin="miter" stroke-miterlimit="2" d="M0 0L1.26557 0" sodipodi:nodetypes="cc"/><path id="shape111" transform="matrix(1.58931713567241 -0.142903281974707 0.150901634470208 1.51828496208563 20.4281157084791 47.267663331263)" fill="none" stroke="#000000" stroke-width="0.24336" stroke-linecap="square" stroke-linejoin="miter" stroke-miterlimit="2" d="M0 1.29062L0 0" sodipodi:nodetypes="cc"/><path id="shape210" transform="matrix(1.58931713567241 -0.142903281974707 0.150901634470208 1.51828496208563 20.4177467508342 47.2093865612494)" fill="url(#meshgradient8)" fill-rule="evenodd" stroke="#000000" stroke-width="0.24336" stroke-linecap="square" stroke-linejoin="miter" stroke-miterlimit="2" d="M0 0L1.55689 0" sodipodi:nodetypes="cc"/><path id="shape38" transform="matrix(1.58931713567241 -0.142903281974707 0.150901634470208 1.51828496208563 22.9201821734516 46.928457451232)" fill="url(#meshgradient9)" fill-rule="evenodd" stroke="#000000" stroke-width="0.24336" stroke-linecap="square" stroke-linejoin="miter" stroke-miterlimit="2" d="M0 0L0 1.36404" sodipodi:nodetypes="cc"/><path id="shape41" transform="matrix(1.58931713567241 -0.142903281974708 0.150901634470209 1.51828496208562 23.2252529622767 48.9964907758478)" fill="url(#meshgradient10)" fill-rule="evenodd" stroke="#000000" stroke-width="0.24336" stroke-linecap="square" stroke-linejoin="miter" stroke-miterlimit="2" d="M0 0L1.3536 0" sodipodi:nodetypes="cc"/><path id="shape51" transform="matrix(1.58931713567241 -0.142903281974707 0.150901634470208 1.51828496208563 16.9522514915108 35.4844692198782)" fill="url(#meshgradient11)" fill-rule="evenodd" stroke="#000000" stroke-width="0.24336" stroke-linecap="square" stroke-linejoin="miter" stroke-miterlimit="2" d="M0 9.21052L1.27243 0" sodipodi:nodetypes="cc"/><path id="shape61" transform="matrix(1.58931713567241 -0.142903281974708 0.150901634470209 1.51828496208562 21.1005979785028 35.0915191087057)" fill="url(#meshgradient12)" fill-rule="evenodd" stroke="#000000" stroke-width="0.24336" stroke-linecap="square" stroke-linejoin="miter" stroke-miterlimit="2" d="M1.95281 9.10315L0 0" sodipodi:nodetypes="cc"/><path id="shape71" transform="matrix(1.58931713567241 -0.142903281974707 0.150901634470208 1.51828496208563 19.1997203456347 35.2624363197975)" fill="url(#meshgradient13)" fill-rule="evenodd" stroke="#000000" stroke-width="0.24336" stroke-linecap="square" stroke-linejoin="miter" stroke-miterlimit="2" d="M0 0L0.938206 0" sodipodi:nodetypes="cc"/><path id="shape81" transform="matrix(1.58931713567241 -0.142903281974707 0.150901634470208 1.51828496208563 19.3512441866986 38.0237111748647)" fill="none" stroke="#000000" stroke-width="0.24336" stroke-linecap="square" stroke-linejoin="bevel" d="M0 4.91591L1.61756 4.92893L0.632957 0C0.672819 0.104442 0.461834 1.74308 0 4.91591Z" sodipodi:nodetypes="cccc"/><rect id="shape91" transform="matrix(1.59641117142335 0.013762743853878 -0.0131008695320351 1.52493316606865 18.7503628434881 35.2920902475257)" fill="#000000" fill-rule="evenodd" stroke="#000000" stroke-width="0.24336" stroke-linecap="square" stroke-linejoin="bevel" width="0.987366361609968" height="9.07966363588528" rx="0.151902517170764" ry="0.134513535346448"/><rect id="shape101" transform="matrix(1.52561253405089 -0.448077660986891 0.470326117682843 1.45768205855016 19.2480947821721 35.6394860630549)" fill="#000000" fill-rule="evenodd" stroke="#000000" stroke-width="0.24336" stroke-linecap="square" stroke-linejoin="bevel" width="1.06271295035811" height="9.06029368223687" rx="0.118079216706457" ry="0.12760977017235"/><rect id="shape112" transform="matrix(1.58931713567241 -0.142903281974707 0.150901634470208 1.51828496208563 18.4556875191077 45.6969188607699)" fill="#000000" fill-rule="evenodd" stroke="#000000" stroke-width="0.24336" stroke-linecap="square" stroke-linejoin="bevel" width="3.816" height="1.08000000000001" rx="0.144" ry="0.144"/><rect id="shape121" transform="matrix(1.58931713567241 -0.142903281974707 0.150901634470209 1.51828496208563 18.3347766321718 49.1268870413538)" fill="#000000" fill-rule="evenodd" stroke="#000000" stroke-width="0.24336" stroke-linecap="square" stroke-linejoin="bevel" width="0.431999999999999" height="1e-06" rx="0.144" ry="5e-07"/><rect id="shape131" transform="matrix(1.58931713567241 -0.142903281974707 0.150901634470208 1.51828496208563 19.9150784695656 48.7642074985828)" fill="#000000" fill-rule="evenodd" stroke="#000000" stroke-width="0.24336" stroke-linecap="square" stroke-linejoin="bevel" width="0.359999999999999" height="0.359999999999999" rx="0.144" ry="0.144"/><rect id="shape141" transform="matrix(1.58931713567241 -0.142903281974707 0.150901634470208 1.51828496208563 23.3371385649364 48.3462198922479)" fill="#000000" fill-rule="evenodd" stroke="#000000" stroke-width="0.24336" stroke-linecap="square" stroke-linejoin="bevel" width="0.359999999999999" height="0.359999999999999" rx="0.144" ry="0.144"/><rect id="shape151" transform="matrix(1.58931713567241 -0.142903281974708 0.150901634470209 1.51828496208562 24.7320384055212 48.4413844911612)" fill="#000000" fill-rule="evenodd" stroke="#000000" stroke-width="0.24336" stroke-linecap="square" stroke-linejoin="bevel" width="0.504000000000001" height="0.143999999999998" rx="0.144" ry="0.071999999999999"/><path id="shape39" transform="matrix(1.5449059881057 0 0 1.47189269134886 37.6764053825629 31.675824787157)" fill="none" stroke="#000000" stroke-width="0.24336" stroke-linecap="square" stroke-linejoin="miter" stroke-miterlimit="2" d="M0 0L1.75065 0" sodipodi:nodetypes="cc"/><path id="shape40" transform="matrix(1.5449059881057 0 0 1.47189269134886 37.3306435145158 18.8068480934299)" fill="none" stroke="#000000" stroke-width="0.24336" stroke-linecap="square" stroke-linejoin="miter" stroke-miterlimit="2" d="M0 0L1.44407 5.38933" sodipodi:nodetypes="cc"/><path id="shape42" transform="matrix(1.5449059881057 0 0 1.47189269134886 39.5456534023036 18.7948106650043)" fill="none" stroke="#000000" stroke-width="0.24336" stroke-linecap="square" stroke-linejoin="miter" stroke-miterlimit="2" d="M0 5.5248L1.48037 0" sodipodi:nodetypes="cc"/><path id="shape43" transform="matrix(1.5449059881057 0 0 1.47189269134886 41.8477946364249 18.7785062846152)" fill="none" stroke="#000000" stroke-width="0.24336" stroke-linecap="square" stroke-linejoin="miter" stroke-miterlimit="2" d="M0 0L0 10.8358" sodipodi:nodetypes="cc"/><path id="shape44" transform="matrix(1.5449059881057 0 0 1.47189269134886 41.8596961358098 34.7650589001514)" fill="none" stroke="#000000" stroke-width="0.24336" stroke-linecap="square" stroke-linejoin="miter" stroke-miterlimit="2" d="M0 0L1.60764 0" sodipodi:nodetypes="cc"/><path id="shape45" transform="matrix(1.5449059881057 0 0 1.47189269134886 33.4101200908286 18.9078661074157)" fill="none" stroke="#000000" stroke-width="0.24336" stroke-linecap="square" stroke-linejoin="miter" stroke-miterlimit="2" d="M4.56234 8.67934L4.53986 9.74354C3.8866 10.166 3.26702 10.3914 2.68112 10.4197C2.31431 10.497 1.79233 10.3521 1.11519 9.98484C0.60734 9.70941 0.456371 9.38116 0.101041 8.80816C-0.0261669 8.07707 -0.00856804 8.1796 0.0221261 7.6889C0.0835144 6.70752 0.59573 6.17647 1.37796 5.88986C1.89945 5.69879 2.29025 5.59364 2.55036 5.57443L2.55394 0" sodipodi:nodetypes="ccczczzcc"/><ellipse id="shape46" transform="matrix(1.5449059881057 0 0 1.47189269134886 45.1683267077447 34.5911716260889)" rx="0.143999999999998" ry="0.107999999999997" cx="0.143999999999998" cy="0.107999999999997" fill="none" stroke="#000000" stroke-width="0.24336" stroke-linecap="square" stroke-linejoin="bevel"/><path id="shape47" transform="matrix(1.11206976872807 0.0945111734553921 -0.0949313162405914 1.11701339679751 13.3296425427638 36.5096759709142)" fill="none" stroke="#000000" stroke-width="0.24336" stroke-linecap="square" stroke-linejoin="bevel" d="M0 1.74345L0.180507 0.0290143C1.11313 -0.0715961 1.73533 0.0894522 2.04712 0.512159C2.5148 1.14622 2.24404 1.7945 1.65328 1.87849C1.06253 1.96249 0.70562 2.14529 0 1.74345Z" sodipodi:nodetypes="cczcc"/><path id="shape48" transform="matrix(1.11206976872807 0.0945111734553921 -0.0949313162405914 1.11701339679751 12.4027506743835 34.2421982274323)" fill="#000000" fill-rule="evenodd" stroke="#000000" stroke-width="0.24336" stroke-linecap="square" stroke-linejoin="bevel" d="M1.05032 0L2.84915 0.290073C4.05991 0.7733 4.72382 1.53741 4.84088 2.58241C5.01648 4.14991 4.73012 4.28347 4.59044 4.51703C4.45077 4.75059 4.30466 4.98865 3.8563 5.31993C3.25848 5.76164 2.66363 5.77702 2.07173 5.36606L0 5.45463L0.838949 3.64823L1.63482 4.02833L3.04401 3.8512L3.31272 3.06215L3.17119 2.42675L2.48608 1.84737L1.65534 1.77726L0.576393 2.01713C0.576393 2.00237 0.734369 1.32999 1.05032 0Z" sodipodi:nodetypes="cczczccccccccccc"/><path id="shape03" transform="matrix(1.52028645008148 0.131197798271005 -0.134445260105261 1.44698396555857 49.9739623928116 36.7553515305747)" fill="none" stroke="#000000" stroke-width="0.24336" stroke-linecap="square" stroke-linejoin="miter" stroke-miterlimit="2" d="M0 9.02983L0.0289758 0" sodipodi:nodetypes="cc"/><path id="shape113" transform="matrix(1.52028645008148 0.131197798271005 -0.134445260105261 1.44698396555857 48.7688842176444 49.9456448909649)" fill="none" stroke="#000000" stroke-width="0.24336" stroke-linecap="square" stroke-linejoin="miter" stroke-miterlimit="2" d="M0 0L1.25857 0.00744706" sodipodi:nodetypes="cc"/><path id="shape211" transform="matrix(1.52028645008148 0.131197798271005 -0.134445260105261 1.44698396555857 51.9051790441856 37.1135659280108)" fill="none" stroke="#000000" stroke-width="0.24336" stroke-linecap="square" stroke-linejoin="miter" stroke-miterlimit="2" d="M3.55271e-15 9.00063L0 0" sodipodi:nodetypes="cc"/><path id="shape310" transform="matrix(1.52028645008148 0.131197798271005 -0.134445260105261 1.44698396555857 50.0614100052977 36.7628980914359)" fill="none" stroke="#000000" stroke-width="0.24336" stroke-linecap="square" stroke-linejoin="miter" stroke-miterlimit="2" d="M0 0L1.09575 0" sodipodi:nodetypes="cc"/><path id="shape49" transform="matrix(1.52028645008148 0.131197798271005 -0.134445260105261 1.44698396555857 51.3556559013572 43.3948535814358)" fill="#000000" fill-rule="evenodd" stroke="#000000" stroke-width="0.24336" stroke-linecap="square" stroke-linejoin="miter" stroke-miterlimit="2" d="M0 0L2.58578 4.4787" sodipodi:nodetypes="cc"/><path id="shape52" transform="matrix(1.52028645008148 0.131197798271005 -0.134445260105261 1.44698396555857 54.7281688430393 50.2785961286295)" fill="none" stroke="#000000" stroke-width="0.24336" stroke-linecap="square" stroke-linejoin="miter" stroke-miterlimit="2" d="M0 0L1.29062 0" sodipodi:nodetypes="cc"/><path id="shape62" transform="matrix(1.52028645008148 0.131197798271005 -0.134445260105261 1.44698396555857 52.6743861145087 41.68874477619)" fill="#000000" fill-rule="evenodd" stroke="#000000" stroke-width="0.24336" stroke-linecap="square" stroke-linejoin="miter" stroke-miterlimit="2" d="M3.41656 5.74271L0 0" sodipodi:nodetypes="cc"/><rect id="shape72" transform="matrix(1.52028645008148 0.131197798271005 -0.134445260105261 1.44698396555857 50.0009685458324 36.7576821096676)" fill="#000000" fill-rule="evenodd" stroke="#000000" stroke-width="0.24336" stroke-linecap="square" stroke-linejoin="bevel" width="1.224" height="9.072" rx="0.144" ry="0.144"/><rect id="shape82" transform="matrix(1.52028645008148 0.131197798271005 -0.134445260105261 1.44698396555857 51.2586555412197 42.2221470948068)" fill="#000000" fill-rule="evenodd" stroke="#000000" stroke-width="0.24336" stroke-linecap="square" stroke-linejoin="bevel" width="1e-06" height="0.0720000000000027" rx="5e-07" ry="0.0360000000000014"/><path id="shape92" transform="matrix(1.52028645008148 0.131197798271005 -0.134445260105261 1.44698396555857 51.1810616595234 42.3034599230659)" fill="#000000" fill-rule="evenodd" stroke="#000000" stroke-width="0.24336" stroke-linecap="square" stroke-linejoin="bevel" d="M0.160359 0.865492L2.83302 5.18628L4.2718 5.21566L1.34672 0.0400691L0 0Z" sodipodi:nodetypes="cccccc"/><path id="shape102" transform="matrix(1.01570133352037 0 0 1.03295030795557 51.6756996290965 38.9161333449752)" fill="none" stroke="#000000" stroke-width="0.24336" stroke-linecap="square" stroke-linejoin="bevel" d="M0 1.74345L0.180507 0.0290143C1.11313 -0.0715961 1.73533 0.0894522 2.04712 0.512159C2.5148 1.14622 2.24404 1.7945 1.65328 1.87849C1.06253 1.96249 0.70562 2.14529 0 1.74345Z" sodipodi:nodetypes="cczcc"/><path id="shape114" transform="matrix(1.01570133352037 0 0 1.03295030795557 50.6604558424407 36.9066583553886)" fill="#000000" fill-rule="evenodd" stroke="#000000" stroke-width="0.24336" stroke-linecap="square" stroke-linejoin="bevel" d="M1.05032 0L2.84915 0.290073C4.05991 0.7733 4.72382 1.53741 4.84088 2.58241C5.01648 4.14991 4.73012 4.28347 4.59044 4.51703C4.45077 4.75059 4.30466 4.98865 3.8563 5.31993C3.25848 5.76164 2.66363 5.77702 2.07173 5.36606L0 5.45463L0.838949 3.64823L1.63482 4.02833L3.04401 3.8512L3.31272 3.06215L3.17119 2.42675L2.48608 1.84737L1.65534 1.77726L0.576393 2.01713C0.576393 2.00237 0.734369 1.32999 1.05032 0Z" sodipodi:nodetypes="cczczccccccccccc"/>
</svg>
