<?xml version="1.0" standalone="no"?>
<!DOCTYPE svg PUBLIC "-//W3C//DTD SVG 20010904//EN" "http://www.w3.org/TR/2001/REC-SVG-20010904/DTD/svg10.dtd">
<!-- Created using Krita: https://krita.org -->
<svg xmlns="http://www.w3.org/2000/svg" 
    xmlns:xlink="http://www.w3.org/1999/xlink"
    xmlns:krita="http://krita.org/namespaces/svg/krita"
    xmlns:sodipodi="http://sodipodi.sourceforge.net/DTD/sodipodi-0.dtd"
    width="259.2pt"
    height="259.2pt"
    viewBox="0 0 259.2 259.2">
<defs>
  <meshgradient id="meshgradient0" gradientUnits="userSpaceOnUse" x="3.5527136788005e-15" y="3.5527136788005e-15" type="bilinear">
   <meshrow id="meshrow0">
    <meshpatch id="meshpatch0">
     <stop path="C 0.4218566666,3.552713679e-15 0.8437133334,3.552713679e-15 1.26557,3.552713679e-15" stop-color="#ffffff" stop-opacity="1"/>
     <stop path="C 1.26557,3.552713679e-15 1.26557,3.552713679e-15 1.26557,3.552713679e-15" stop-color="#000000" stop-opacity="1"/>
     <stop path="C 0.8437133334,3.552713679e-15 0.4218566666,3.552713679e-15 3.552713679e-15,3.552713679e-15" stop-color="#ffffff" stop-opacity="1"/>
     <stop path="C 3.552713679e-15,3.552713679e-15 3.552713679e-15,3.552713679e-15 3.552713679e-15,3.552713679e-15" stop-color="#000000" stop-opacity="1"/>
    </meshpatch>
   </meshrow>
  </meshgradient>
  <meshgradient id="meshgradient1" gradientUnits="userSpaceOnUse" x="0" y="3.5527136788005e-15" type="bilinear">
   <meshrow id="meshrow1">
    <meshpatch id="meshpatch1">
     <stop path="C 0.5189633333,3.552713679e-15 1.037926667,3.552713679e-15 1.55689,3.552713679e-15" stop-color="#ffffff" stop-opacity="1"/>
     <stop path="C 1.55689,3.552713679e-15 1.55689,3.552713679e-15 1.55689,3.552713679e-15" stop-color="#000000" stop-opacity="1"/>
     <stop path="C 1.037926667,3.552713679e-15 0.5189633333,3.552713679e-15 0,3.552713679e-15" stop-color="#ffffff" stop-opacity="1"/>
     <stop path="C 0,3.552713679e-15 0,3.552713679e-15 0,3.552713679e-15" stop-color="#000000" stop-opacity="1"/>
    </meshpatch>
   </meshrow>
  </meshgradient>
  <meshgradient id="meshgradient2" gradientUnits="userSpaceOnUse" x="0" y="0" type="bilinear">
   <meshrow id="meshrow2">
    <meshpatch id="meshpatch2">
     <stop path="C 0,0 0,0 0,0" stop-color="#ffffff" stop-opacity="1"/>
     <stop path="C 0,0.45468 0,0.90936 0,1.36404" stop-color="#000000" stop-opacity="1"/>
     <stop path="C 0,1.36404 0,1.36404 0,1.36404" stop-color="#ffffff" stop-opacity="1"/>
     <stop path="C 0,0.90936 0,0.45468 0,0" stop-color="#000000" stop-opacity="1"/>
    </meshpatch>
   </meshrow>
  </meshgradient>
  <meshgradient id="meshgradient3" gradientUnits="userSpaceOnUse" x="0" y="3.5527136788005e-15" type="bilinear">
   <meshrow id="meshrow3">
    <meshpatch id="meshpatch3">
     <stop path="C 0.4512,3.552713679e-15 0.9024,3.552713679e-15 1.3536,3.552713679e-15" stop-color="#ffffff" stop-opacity="1"/>
     <stop path="C 1.3536,3.552713679e-15 1.3536,3.552713679e-15 1.3536,3.552713679e-15" stop-color="#000000" stop-opacity="1"/>
     <stop path="C 0.9024,3.552713679e-15 0.4512,3.552713679e-15 0,3.552713679e-15" stop-color="#ffffff" stop-opacity="1"/>
     <stop path="C 0,3.552713679e-15 0,3.552713679e-15 0,3.552713679e-15" stop-color="#000000" stop-opacity="1"/>
    </meshpatch>
   </meshrow>
  </meshgradient>
  <meshgradient id="meshgradient4" gradientUnits="userSpaceOnUse" x="3.5527136788005e-15" y="0" type="bilinear">
   <meshrow id="meshrow4">
    <meshpatch id="meshpatch4">
     <stop path="C 0.4241433333,0 0.8482866667,0 1.27243,0" stop-color="#ffffff" stop-opacity="1"/>
     <stop path="C 1.27243,3.070173333 1.27243,6.140346667 1.27243,9.21052" stop-color="#000000" stop-opacity="1"/>
     <stop path="C 0.8482866667,9.21052 0.4241433333,9.21052 3.552713679e-15,9.21052" stop-color="#ffffff" stop-opacity="1"/>
     <stop path="C 3.552713679e-15,6.140346667 3.552713679e-15,3.070173333 3.552713679e-15,0" stop-color="#000000" stop-opacity="1"/>
    </meshpatch>
   </meshrow>
  </meshgradient>
  <meshgradient id="meshgradient5" gradientUnits="userSpaceOnUse" x="-7.105427357601e-15" y="0" type="bilinear">
   <meshrow id="meshrow5">
    <meshpatch id="meshpatch5">
     <stop path="C 0.6509366666,0 1.301873333,0 1.95281,0" stop-color="#ffffff" stop-opacity="1"/>
     <stop path="C 1.95281,3.034383333 1.95281,6.068766667 1.95281,9.10315" stop-color="#000000" stop-opacity="1"/>
     <stop path="C 1.301873333,9.10315 0.6509366666,9.10315 -7.105427358e-15,9.10315" stop-color="#ffffff" stop-opacity="1"/>
     <stop path="C -7.105427358e-15,6.068766667 -7.105427358e-15,3.034383333 -7.105427358e-15,0" stop-color="#000000" stop-opacity="1"/>
    </meshpatch>
   </meshrow>
  </meshgradient>
  <meshgradient id="meshgradient6" gradientUnits="userSpaceOnUse" x="0" y="3.5527136788005e-15" type="bilinear">
   <meshrow id="meshrow6">
    <meshpatch id="meshpatch6">
     <stop path="C 0.3127353333,3.552713679e-15 0.6254706667,3.552713679e-15 0.938206,3.552713679e-15" stop-color="#ffffff" stop-opacity="1"/>
     <stop path="C 0.938206,3.552713679e-15 0.938206,3.552713679e-15 0.938206,3.552713679e-15" stop-color="#000000" stop-opacity="1"/>
     <stop path="C 0.6254706667,3.552713679e-15 0.3127353333,3.552713679e-15 0,3.552713679e-15" stop-color="#ffffff" stop-opacity="1"/>
     <stop path="C 0,3.552713679e-15 0,3.552713679e-15 0,3.552713679e-15" stop-color="#000000" stop-opacity="1"/>
    </meshpatch>
   </meshrow>
  </meshgradient>
  <meshgradient id="meshgradient7" gradientUnits="userSpaceOnUse" x="0" y="1.4210854715202e-14" type="bilinear">
   <meshrow id="meshrow7">
    <meshpatch id="meshpatch7">
     <stop path="C 0.4218566666,1.421085472e-14 0.8437133334,1.421085472e-14 1.26557,1.421085472e-14" stop-color="#ffffff" stop-opacity="1"/>
     <stop path="C 1.26557,1.421085472e-14 1.26557,1.421085472e-14 1.26557,1.421085472e-14" stop-color="#000000" stop-opacity="1"/>
     <stop path="C 0.8437133334,1.421085472e-14 0.4218566666,1.421085472e-14 0,1.421085472e-14" stop-color="#ffffff" stop-opacity="1"/>
     <stop path="C 0,1.421085472e-14 0,1.421085472e-14 0,1.421085472e-14" stop-color="#000000" stop-opacity="1"/>
    </meshpatch>
   </meshrow>
  </meshgradient>
  <meshgradient id="meshgradient8" gradientUnits="userSpaceOnUse" x="3.5527136788005e-15" y="-1.4210854715202e-14" type="bilinear">
   <meshrow id="meshrow8">
    <meshpatch id="meshpatch8">
     <stop path="C 0.5189633333,-1.421085472e-14 1.037926667,-1.421085472e-14 1.55689,-1.421085472e-14" stop-color="#ffffff" stop-opacity="1"/>
     <stop path="C 1.55689,-1.421085472e-14 1.55689,-1.421085472e-14 1.55689,-1.421085472e-14" stop-color="#000000" stop-opacity="1"/>
     <stop path="C 1.037926667,-1.421085472e-14 0.5189633333,-1.421085472e-14 3.552713678e-15,-1.421085472e-14" stop-color="#ffffff" stop-opacity="1"/>
     <stop path="C 3.552713678e-15,-1.421085472e-14 3.552713678e-15,-1.421085472e-14 3.552713679e-15,-1.421085472e-14" stop-color="#000000" stop-opacity="1"/>
    </meshpatch>
   </meshrow>
  </meshgradient>
  <meshgradient id="meshgradient9" gradientUnits="userSpaceOnUse" x="3.5527136788005e-15" y="7.105427357601e-15" type="bilinear">
   <meshrow id="meshrow9">
    <meshpatch id="meshpatch9">
     <stop path="C 3.552713678e-15,7.105427358e-15 3.552713678e-15,7.105427358e-15 3.552713678e-15,7.105427358e-15" stop-color="#ffffff" stop-opacity="1"/>
     <stop path="C 3.552713678e-15,0.45468 3.552713678e-15,0.90936 3.552713678e-15,1.36404" stop-color="#000000" stop-opacity="1"/>
     <stop path="C 3.552713678e-15,1.36404 3.552713678e-15,1.36404 3.552713678e-15,1.36404" stop-color="#ffffff" stop-opacity="1"/>
     <stop path="C 3.552713678e-15,0.90936 3.552713678e-15,0.45468 3.552713679e-15,7.105427358e-15" stop-color="#000000" stop-opacity="1"/>
    </meshpatch>
   </meshrow>
  </meshgradient>
  <meshgradient id="meshgradient10" gradientUnits="userSpaceOnUse" x="3.5527136788005e-15" y="-1.4210854715202e-14" type="bilinear">
   <meshrow id="meshrow10">
    <meshpatch id="meshpatch10">
     <stop path="C 0.4512,-1.421085472e-14 0.9024,-1.421085472e-14 1.3536,-1.421085472e-14" stop-color="#ffffff" stop-opacity="1"/>
     <stop path="C 1.3536,-1.421085472e-14 1.3536,-1.421085472e-14 1.3536,-1.421085472e-14" stop-color="#000000" stop-opacity="1"/>
     <stop path="C 0.9024,-1.421085472e-14 0.4512,-1.421085472e-14 3.552713678e-15,-1.421085472e-14" stop-color="#ffffff" stop-opacity="1"/>
     <stop path="C 3.552713678e-15,-1.421085472e-14 3.552713678e-15,-1.421085472e-14 3.552713679e-15,-1.421085472e-14" stop-color="#000000" stop-opacity="1"/>
    </meshpatch>
   </meshrow>
  </meshgradient>
  <meshgradient id="meshgradient11" gradientUnits="userSpaceOnUse" x="0" y="7.105427357601e-15" type="bilinear">
   <meshrow id="meshrow11">
    <meshpatch id="meshpatch11">
     <stop path="C 0.4241433333,7.105427358e-15 0.8482866667,7.105427358e-15 1.27243,7.105427358e-15" stop-color="#ffffff" stop-opacity="1"/>
     <stop path="C 1.27243,3.070173333 1.27243,6.140346667 1.27243,9.21052" stop-color="#000000" stop-opacity="1"/>
     <stop path="C 0.8482866667,9.21052 0.4241433333,9.21052 0,9.21052" stop-color="#ffffff" stop-opacity="1"/>
     <stop path="C 0,6.140346667 0,3.070173333 0,7.105427358e-15" stop-color="#000000" stop-opacity="1"/>
    </meshpatch>
   </meshrow>
  </meshgradient>
  <meshgradient id="meshgradient12" gradientUnits="userSpaceOnUse" x="3.5527136788005e-15" y="-7.105427357601e-15" type="bilinear">
   <meshrow id="meshrow12">
    <meshpatch id="meshpatch12">
     <stop path="C 0.6509366666,-7.105427358e-15 1.301873333,-7.105427358e-15 1.95281,-7.105427358e-15" stop-color="#ffffff" stop-opacity="1"/>
     <stop path="C 1.95281,3.034383333 1.95281,6.068766667 1.95281,9.10315" stop-color="#000000" stop-opacity="1"/>
     <stop path="C 1.301873333,9.10315 0.6509366666,9.10315 3.552713678e-15,9.10315" stop-color="#ffffff" stop-opacity="1"/>
     <stop path="C 3.552713678e-15,6.068766667 3.552713678e-15,3.034383333 3.552713679e-15,-7.105427358e-15" stop-color="#000000" stop-opacity="1"/>
    </meshpatch>
   </meshrow>
  </meshgradient>
  <meshgradient id="meshgradient13" gradientUnits="userSpaceOnUse" x="0" y="0" type="bilinear">
   <meshrow id="meshrow13">
    <meshpatch id="meshpatch13">
     <stop path="C 0.3127353333,0 0.6254706667,0 0.938206,0" stop-color="#ffffff" stop-opacity="1"/>
     <stop path="C 0.938206,0 0.938206,0 0.938206,0" stop-color="#000000" stop-opacity="1"/>
     <stop path="C 0.6254706667,0 0.3127353333,0 0,0" stop-color="#ffffff" stop-opacity="1"/>
     <stop path="C 0,0 0,0 0,0" stop-color="#000000" stop-opacity="1"/>
    </meshpatch>
   </meshrow>
  </meshgradient>
 </defs>
<path id="shape0" transform="matrix(5.80236054249075 1.080627491764 -0.983814621606478 5.92008645399732 30.8273740800065 90.1079504251259)" fill="none" stroke="#000000" stroke-width="0.24336" stroke-linecap="square" stroke-linejoin="miter" stroke-miterlimit="2" d="M0 9.02983L0.0289758 0" sodipodi:nodetypes="cc"/><path id="shape1" transform="matrix(5.80236054249075 1.080627491764 -0.983814621606478 5.92008645399732 21.9379601681582 144.081041356698)" fill="none" stroke="#000000" stroke-width="0.24336" stroke-linecap="square" stroke-linejoin="miter" stroke-miterlimit="2" d="M0 0L1.25857 0.00744706" sodipodi:nodetypes="cc"/><path id="shape2" transform="matrix(5.80236054249075 1.080627491764 -0.983814621606478 5.92008645399732 38.1362856007416 92.2706962857642)" fill="none" stroke="#000000" stroke-width="0.24336" stroke-linecap="square" stroke-linejoin="miter" stroke-miterlimit="2" d="M3.55271e-15 9.00063L0 0" sodipodi:nodetypes="cc"/><path id="shape3" transform="matrix(5.80236054249075 1.080627491764 -0.983814621606478 5.92008645399732 31.1611286669772 90.170108641517)" fill="none" stroke="#000000" stroke-width="0.24336" stroke-linecap="square" stroke-linejoin="miter" stroke-miterlimit="2" d="M0 0L1.09575 0" sodipodi:nodetypes="cc"/><path id="shape4" transform="matrix(5.80236054249075 1.080627491764 -0.983814621606478 5.92008645399732 33.9966796639263 117.981606880397)" fill="#000000" fill-rule="evenodd" stroke="#000000" stroke-width="0.24336" stroke-linecap="square" stroke-linejoin="miter" stroke-miterlimit="2" d="M0 0L2.58578 4.4787" sodipodi:nodetypes="cc"/><path id="shape5" transform="matrix(5.80236054249075 1.080627491764 -0.983814621606478 5.92008645399732 44.7408175040601 147.569098566512)" fill="none" stroke="#000000" stroke-width="0.24336" stroke-linecap="square" stroke-linejoin="miter" stroke-miterlimit="2" d="M0 0L1.29062 0" sodipodi:nodetypes="cc"/><path id="shape6" transform="matrix(5.80236054249075 1.080627491764 -0.983814621606478 5.92008645399732 39.6170642061913 111.413097227584)" fill="#000000" fill-rule="evenodd" stroke="#000000" stroke-width="0.24336" stroke-linecap="square" stroke-linejoin="miter" stroke-miterlimit="2" d="M3.41656 5.74271L0 0" sodipodi:nodetypes="cc"/><rect id="shape7" transform="matrix(5.80236054249075 1.080627491764 -0.983814621606478 5.92008645399732 30.9304463902829 90.1271465387255)" fill="#000000" fill-rule="evenodd" stroke="#000000" stroke-width="0.24336" stroke-linecap="square" stroke-linejoin="bevel" width="1.224" height="9.072" rx="0.144" ry="0.144"/><rect id="shape8" transform="matrix(5.80236054249075 1.080627491764 -0.983814621606478 5.92008645399732 34.0021984446936 113.110586868315)" fill="#000000" fill-rule="evenodd" stroke="#000000" stroke-width="0.24336" stroke-linecap="square" stroke-linejoin="bevel" width="1e-06" height="0.0720000000000027" rx="5e-07" ry="0.0360000000000014"/><path id="shape9" transform="matrix(5.80236054249075 1.080627491764 -0.983814621606478 5.92008645399732 33.6776512055712 113.418408576612)" fill="#000000" fill-rule="evenodd" stroke="#000000" stroke-width="0.24336" stroke-linecap="square" stroke-linejoin="bevel" d="M0.160359 0.865492L2.83302 5.18628L4.2718 5.21566L1.34672 0.0400691L0 0Z" sodipodi:nodetypes="cccccc"/><path id="shape10" transform="matrix(5.3780990321776 0.733946564689652 -0.709233886955672 5.56549451714816 138.108301532158 149.387385938934)" fill="url(#meshgradient0)" fill-rule="evenodd" stroke="#000000" stroke-width="0.24336" stroke-linecap="square" stroke-linejoin="miter" stroke-miterlimit="2" d="M0 0L1.26557 0" sodipodi:nodetypes="cc"/><path id="shape11" transform="matrix(5.3780990321776 0.733946564689652 -0.709233886955672 5.56549451714816 146.368822248808 143.012281064956)" fill="none" stroke="#000000" stroke-width="0.24336" stroke-linecap="square" stroke-linejoin="miter" stroke-miterlimit="2" d="M0 1.29062L0 0" sodipodi:nodetypes="cc"/><path id="shape12" transform="matrix(5.3780990321776 0.733946564689652 -0.709233886955672 5.56549451714816 146.380885041821 142.795069058417)" fill="url(#meshgradient1)" fill-rule="evenodd" stroke="#000000" stroke-width="0.24336" stroke-linecap="square" stroke-linejoin="miter" stroke-miterlimit="2" d="M0 0L1.55689 0" sodipodi:nodetypes="cc"/><path id="shape13" transform="matrix(5.3780990321776 0.733946564689652 -0.709233886955672 5.56549451714816 154.893423532771 143.750059826841)" fill="url(#meshgradient2)" fill-rule="evenodd" stroke="#000000" stroke-width="0.24336" stroke-linecap="square" stroke-linejoin="miter" stroke-miterlimit="2" d="M0 0L0 1.36404" sodipodi:nodetypes="cc"/><path id="shape14" transform="matrix(5.37809903217756 0.733946564689637 -0.709233886955662 5.56549451714812 154.257059878996 151.408806892884)" fill="url(#meshgradient3)" fill-rule="evenodd" stroke="#000000" stroke-width="0.24336" stroke-linecap="square" stroke-linejoin="miter" stroke-miterlimit="2" d="M0 0L1.3536 0" sodipodi:nodetypes="cc"/><path id="shape15" transform="matrix(5.3780990321776 0.733946564689652 -0.709233886955672 5.56549451714816 144.239095026378 98.011462970196)" fill="url(#meshgradient4)" fill-rule="evenodd" stroke="#000000" stroke-width="0.24336" stroke-linecap="square" stroke-linejoin="miter" stroke-miterlimit="2" d="M0 9.21052L1.27243 0" sodipodi:nodetypes="cc"/><path id="shape16" transform="matrix(5.37809903217756 0.733946564689637 -0.709233886955662 5.56549451714812 158.292596100318 99.8555877264471)" fill="url(#meshgradient5)" fill-rule="evenodd" stroke="#000000" stroke-width="0.24336" stroke-linecap="square" stroke-linejoin="miter" stroke-miterlimit="2" d="M1.95281 9.10315L0 0" sodipodi:nodetypes="cc"/><path id="shape17" transform="matrix(5.3780990321776 0.733946564689652 -0.709233886955672 5.56549451714816 151.860205781132 98.9777625415151)" fill="url(#meshgradient6)" fill-rule="evenodd" stroke="#000000" stroke-width="0.24336" stroke-linecap="square" stroke-linejoin="miter" stroke-miterlimit="2" d="M0 0L0.938206 0" sodipodi:nodetypes="cc"/><path id="shape18" transform="matrix(5.3780990321776 0.733946564689652 -0.709233886955672 5.56549451714816 150.163194535094 109.003202247779)" fill="none" stroke="#000000" stroke-width="0.24336" stroke-linecap="square" stroke-linejoin="bevel" d="M0 4.91591L1.61756 4.92893L0.632957 0C0.672819 0.104442 0.461834 1.74308 0 4.91591Z" sodipodi:nodetypes="cccc"/><rect id="shape19" transform="matrix(5.27683774398916 1.30157949928158 -1.25775408165803 5.46070486176247 150.348183069712 98.7316816340051)" fill="#000000" fill-rule="evenodd" stroke="#000000" stroke-width="0.24336" stroke-linecap="square" stroke-linejoin="bevel" width="0.987366361609968" height="9.07966363588528" rx="0.151902517170764" ry="0.134513535346448"/><rect id="shape20" transform="matrix(5.41011160407501 -0.410892227822293 0.397057096358926 5.59862254106682 151.720178077029 100.368442782898)" fill="#000000" fill-rule="evenodd" stroke="#000000" stroke-width="0.24336" stroke-linecap="square" stroke-linejoin="bevel" width="1.06271295035811" height="9.06029368223687" rx="0.118079216706457" ry="0.12760977017235"/><rect id="shape21" transform="matrix(5.3780990321776 0.733946564689652 -0.709233886955672 5.56549451714816 141.086383679021 135.82979778802)" fill="#000000" fill-rule="evenodd" stroke="#000000" stroke-width="0.24336" stroke-linecap="square" stroke-linejoin="bevel" width="3.816" height="1.08000000000001" rx="0.144" ry="0.144"/><rect id="shape22" transform="matrix(5.3780990321776 0.733946564689652 -0.709233886955672 5.56549451714816 137.95448112207 148.040604939665)" fill="#000000" fill-rule="evenodd" stroke="#000000" stroke-width="0.24336" stroke-linecap="square" stroke-linejoin="bevel" width="0.431999999999999" height="1e-06" rx="0.144" ry="5e-07"/><rect id="shape23" transform="matrix(5.3780990321776 0.733946564689652 -0.709233886955672 5.56549451714816 143.477734626226 147.978991866402)" fill="#000000" fill-rule="evenodd" stroke="#000000" stroke-width="0.24336" stroke-linecap="square" stroke-linejoin="bevel" width="0.359999999999999" height="0.359999999999999" rx="0.144" ry="0.144"/><rect id="shape24" transform="matrix(5.3780990321776 0.733946564689652 -0.709233886955672 5.56549451714816 155.145493375591 149.163600840899)" fill="#000000" fill-rule="evenodd" stroke="#000000" stroke-width="0.24336" stroke-linecap="square" stroke-linejoin="bevel" width="0.359999999999999" height="0.359999999999999" rx="0.144" ry="0.144"/><path id="shape01" transform="matrix(5.45509299419172 0.468256852738112 -0.457230627763431 5.55998059526702 164.13109438904 100.580165599193)" fill="none" stroke="#000000" stroke-width="0.24336" stroke-linecap="square" stroke-linejoin="miter" stroke-miterlimit="2" d="M0 9.02983L0.0289758 0" sodipodi:nodetypes="cc"/><path id="shape110" transform="matrix(5.45509299419172 0.468256852738112 -0.457230627763431 5.55998059526702 160.036589439387 151.262884346415)" fill="none" stroke="#000000" stroke-width="0.24336" stroke-linecap="square" stroke-linejoin="miter" stroke-miterlimit="2" d="M0 0L1.25857 0.00744706" sodipodi:nodetypes="cc"/><rect id="shape25" transform="matrix(5.59726255468415 -0.584977549852786 0.545414797001374 5.58873251939854 70.9850891478023 101.200873919873)" fill="#000000" fill-rule="evenodd" stroke="#000000" stroke-width="0.24336" stroke-linecap="square" stroke-linejoin="bevel" width="4.536" height="1.224" rx="0.144" ry="0.144"/><rect id="shape26" transform="matrix(5.1979565097213 2.10770691498158 -2.14664238519215 5.20900196465249 89.8911344362733 101.928939132997)" fill="#000000" fill-rule="evenodd" stroke="#000000" stroke-width="0.24336" stroke-linecap="square" stroke-linejoin="bevel" width="1.368" height="6.59177265140437" rx="0.144" ry="0.110786094981586"/><rect id="shape27" transform="matrix(5.59726255468415 -0.584977549852786 0.545414797001374 5.58873251939854 75.8201131482503 135.78743399056)" fill="#000000" fill-rule="evenodd" stroke="#000000" stroke-width="0.24336" stroke-linecap="square" stroke-linejoin="bevel" width="4.824" height="1.152" rx="0.144" ry="0.144"/><path id="shape28" transform="matrix(5.59726255468415 -0.584977549852786 0.545414797001374 5.58873251939854 66.3778370175675 136.949216146331)" fill="#000000" fill-rule="evenodd" stroke="#000000" stroke-width="0.24336" stroke-linecap="square" stroke-linejoin="bevel" d="M6.70678 0C8.27072 0.441641 9.17078 1.10305 9.40694 1.98422C9.76119 3.30597 9.46931 4.40557 8.45896 5.04288C7.4486 5.6802 5.43538 5.62859 4.03585 5.03166C2.63632 4.43474 1.04566 5.07425 0.666468 5.42432C0.287273 5.7744 0.21051 6.14987 0.289643 6.68626C0.342398 7.04386 1.41068 7.77892 3.4945 8.89146L3.57682 7.60112C4.12649 8.33789 4.74601 8.41015 5.22582 9.82948C3.808 10.1541 3.27829 9.87287 2.30453 9.89456L3.09285 9.23032C1.29108 8.27417 0.303175 7.56504 0.129147 7.10294C-0.131896 6.40978 0.0168855 5.49619 0.448469 4.97332C0.880052 4.45045 2.5041 4.32029 3.33234 4.44147C4.16058 4.56265 6.38835 5.3952 7.38374 4.90824C8.37912 4.42128 8.48141 4.13179 8.51134 3.27456C8.54128 2.41732 8.65354 2.22209 6.90226 1.29529C5.02126 0.8936 5.03782 0.352319 6.70678 0Z" sodipodi:nodetypes="czzzzzccccczzzzzcc"/><path id="shape29" transform="matrix(5.34450122099413 0.96149700924973 -0.929122491982498 5.53072601757035 108.361970838851 103.988336373282)" fill="#000000" fill-rule="evenodd" stroke="#000000" stroke-width="0.24336" stroke-linecap="square" stroke-linejoin="bevel" d="M2.35019 4.43615L2.34564 3.40093L5.65412 3.38047L5.71325 5.74824C3.52131 6.96624 1.87566 6.92896 0.776316 5.6364C-0.8727 3.69756 0.537616 0.947528 1.06289 0.705821C1.58816 0.464114 2.19738 -0.155212 3.59958 0.0361355C5.00178 0.227482 5.44943 0.613074 6.19844 1.45871C5.9162 1.6049 5.55938 1.79449 5.12796 2.02746C4.66702 1.42006 3.91395 1.16364 2.86875 1.25821C1.30094 1.40006 1.16751 3.21135 1.23119 3.57415C1.29488 3.93695 1.40556 4.68029 1.99387 4.9749C2.58217 5.2695 3.16593 5.41954 3.83157 5.33088C4.27532 5.27178 4.52854 5.1813 4.59121 5.05946L4.55937 4.32567C4.55432 4.32567 3.81792 4.3625 2.35019 4.43615Z" sodipodi:nodetypes="cccczzzcczzzzccc"/><path id="shape30" transform="matrix(5.34450122099413 0.96149700924973 -0.929122491982498 5.53072601757035 103.673711053903 98.3348392722089)" fill="#000000" fill-rule="evenodd" stroke="#000000" stroke-width="0.24336" stroke-linecap="square" stroke-linejoin="bevel" d="M1.7928 2.1983L1.34877 1.65673L0 3.44961L0.590924 0.664695L2.278 0L3.14269 1.20526Z" sodipodi:nodetypes="ccccccc"/><path id="shape31" transform="matrix(5.34450122099413 0.96149700924973 -0.929122491982498 5.53072601757035 127.39446971881 98.7095726615071)" fill="#000000" fill-rule="evenodd" stroke="#000000" stroke-width="0.24336" stroke-linecap="square" stroke-linejoin="bevel" d="M0 1.56063L0.567554 0L3.12266 0.304318L3.68799 2.82896L2.14891 1.15721L1.8184 2.23033Z" sodipodi:nodetypes="ccccccc"/><rect id="shape32" transform="matrix(5.10940091280277 -1.37721355023375 1.25776731783824 4.99711021601131 184.242014207421 106.31509224556)" fill="#000000" fill-rule="evenodd" stroke="#000000" stroke-width="0.24336" stroke-linecap="square" stroke-linejoin="bevel" width="1.224" height="9.36" rx="0.144" ry="0.144"/><rect id="shape33" transform="matrix(5.10940091280277 -1.37721355023375 1.25776731783824 4.99711021601131 195.301522083681 147.133054147348)" fill="#000000" fill-rule="evenodd" stroke="#000000" stroke-width="0.24336" stroke-linecap="square" stroke-linejoin="bevel" width="3.6" height="1.224" rx="0.144" ry="0.144"/><rect id="shape34" transform="matrix(5.10940091280277 -1.37721355023375 1.25776731783824 4.99711021601131 191.333834855322 126.687227629539)" fill="#000000" fill-rule="evenodd" stroke="#000000" stroke-width="0.24336" stroke-linecap="square" stroke-linejoin="bevel" width="3.456" height="1.224" rx="0.144" ry="0.144"/><rect id="shape35" transform="matrix(5.10940091280277 -1.37721355023375 1.25776731783824 4.99711021601131 186.907711514358 105.980768551795)" fill="#000000" fill-rule="evenodd" stroke="#000000" stroke-width="0.24336" stroke-linecap="square" stroke-linejoin="bevel" width="3.312" height="1.15199999999999" rx="0.144" ry="0.144"/><rect id="shape36" transform="matrix(5.49369761917585 -0.630191274043238 0.587101251140037 5.48094318732983 210.363925929949 100.414243445681)" fill="#000000" fill-rule="evenodd" stroke="#000000" stroke-width="0.24336" stroke-linecap="square" stroke-linejoin="bevel" width="1.224" height="9.288" rx="0.144" ry="0.144"/><rect id="shape37" transform="matrix(5.49369761917585 -0.630191274043238 0.587101251140037 5.48094318732983 216.41176297513 145.660331721579)" fill="#000000" fill-rule="evenodd" stroke="#000000" stroke-width="0.24336" stroke-linecap="square" stroke-linejoin="bevel" width="4.176" height="1.08" rx="0.144" ry="0.144"/><path id="shape02" transform="matrix(5.58060421647383 -0.545021622142389 0.529864228287547 5.79061671275519 54.7029975132301 149.068038510733)" fill="url(#meshgradient7)" fill-rule="evenodd" stroke="#000000" stroke-width="0.24336" stroke-linecap="square" stroke-linejoin="miter" stroke-miterlimit="2" d="M0 0L1.26557 0" sodipodi:nodetypes="cc"/><path id="shape111" transform="matrix(5.58060421647383 -0.545021622142389 0.529864228287547 5.79061671275519 61.5973925804064 140.653688418941)" fill="none" stroke="#000000" stroke-width="0.24336" stroke-linecap="square" stroke-linejoin="miter" stroke-miterlimit="2" d="M0 1.29062L0 0" sodipodi:nodetypes="cc"/><path id="shape210" transform="matrix(5.58060421647383 -0.545021622142389 0.529864228287547 5.79061671275519 61.5609838313563 140.431425505961)" fill="url(#meshgradient8)" fill-rule="evenodd" stroke="#000000" stroke-width="0.24336" stroke-linecap="square" stroke-linejoin="miter" stroke-miterlimit="2" d="M0 0L1.55689 0" sodipodi:nodetypes="cc"/><path id="shape38" transform="matrix(5.58060421647383 -0.545021622142389 0.529864228287547 5.79061671275519 70.3478403733666 139.359984478625)" fill="url(#meshgradient9)" fill-rule="evenodd" stroke="#000000" stroke-width="0.24336" stroke-linecap="square" stroke-linejoin="miter" stroke-miterlimit="2" d="M0 0L0 1.36404" sodipodi:nodetypes="cc"/><path id="shape41" transform="matrix(5.58060421647383 -0.545021622142393 0.52986422828755 5.79061671275515 71.4190421443839 147.247297223661)" fill="url(#meshgradient10)" fill-rule="evenodd" stroke="#000000" stroke-width="0.24336" stroke-linecap="square" stroke-linejoin="miter" stroke-miterlimit="2" d="M0 0L1.3536 0" sodipodi:nodetypes="cc"/><path id="shape51" transform="matrix(5.58060421647383 -0.545021622142389 0.529864228287547 5.79061671275519 49.3925141016394 95.7135339321999)" fill="url(#meshgradient11)" fill-rule="evenodd" stroke="#000000" stroke-width="0.24336" stroke-linecap="square" stroke-linejoin="miter" stroke-miterlimit="2" d="M0 9.21052L1.27243 0" sodipodi:nodetypes="cc"/><path id="shape61" transform="matrix(5.58060421647383 -0.545021622142393 0.52986422828755 5.79061671275515 63.958694366793 94.2148538175599)" fill="url(#meshgradient12)" fill-rule="evenodd" stroke="#000000" stroke-width="0.24336" stroke-linecap="square" stroke-linejoin="miter" stroke-miterlimit="2" d="M1.95281 9.10315L0 0" sodipodi:nodetypes="cc"/><path id="shape71" transform="matrix(5.58060421647383 -0.545021622142389 0.529864228287547 5.79061671275519 57.2841009235552 94.8667183118812)" fill="url(#meshgradient13)" fill-rule="evenodd" stroke="#000000" stroke-width="0.24336" stroke-linecap="square" stroke-linejoin="miter" stroke-miterlimit="2" d="M0 0L0.938206 0" sodipodi:nodetypes="cc"/><path id="shape81" transform="matrix(5.58060421647383 -0.545021622142389 0.529864228287547 5.79061671275519 57.816149919541 105.39799848889)" fill="none" stroke="#000000" stroke-width="0.24336" stroke-linecap="square" stroke-linejoin="bevel" d="M0 4.91591L1.61756 4.92893L0.632957 0C0.672819 0.104442 0.461834 1.74308 0 4.91591Z" sodipodi:nodetypes="cccc"/><rect id="shape91" transform="matrix(5.60551366024369 0.0524899979672854 -0.046001371349348 5.81597242795703 55.7062620423791 94.9798160068396)" fill="#000000" fill-rule="evenodd" stroke="#000000" stroke-width="0.24336" stroke-linecap="square" stroke-linejoin="bevel" width="0.987366361609968" height="9.07966363588528" rx="0.151902517170764" ry="0.134513535346448"/><rect id="shape101" transform="matrix(5.35691684757912 -1.7089321551066 1.6514664421259 5.5594821136402 57.4539591465939 96.3047557023376)" fill="#000000" fill-rule="evenodd" stroke="#000000" stroke-width="0.24336" stroke-linecap="square" stroke-linejoin="bevel" width="1.06271295035811" height="9.06029368223687" rx="0.118079216706457" ry="0.12760977017235"/><rect id="shape112" transform="matrix(5.58060421647383 -0.545021622142389 0.529864228287547 5.79061671275519 54.6715620943209 134.662995361024)" fill="#000000" fill-rule="evenodd" stroke="#000000" stroke-width="0.24336" stroke-linecap="square" stroke-linejoin="bevel" width="3.816" height="1.08000000000001" rx="0.144" ry="0.144"/><rect id="shape121" transform="matrix(5.58060421647383 -0.545021622142389 0.52986422828755 5.79061671275519 54.2470050375152 147.744618091071)" fill="#000000" fill-rule="evenodd" stroke="#000000" stroke-width="0.24336" stroke-linecap="square" stroke-linejoin="bevel" width="0.431999999999999" height="1e-06" rx="0.144" ry="5e-07"/><rect id="shape131" transform="matrix(5.58060421647383 -0.545021622142389 0.529864228287547 5.79061671275519 59.7959536388464 146.361387489314)" fill="#000000" fill-rule="evenodd" stroke="#000000" stroke-width="0.24336" stroke-linecap="square" stroke-linejoin="bevel" width="0.359999999999999" height="0.359999999999999" rx="0.144" ry="0.144"/><rect id="shape141" transform="matrix(5.58060421647383 -0.545021622142389 0.529864228287547 5.79061671275519 71.8119085219941 144.767216382171)" fill="#000000" fill-rule="evenodd" stroke="#000000" stroke-width="0.24336" stroke-linecap="square" stroke-linejoin="bevel" width="0.359999999999999" height="0.359999999999999" rx="0.144" ry="0.144"/><rect id="shape151" transform="matrix(5.58060421647383 -0.545021622142393 0.52986422828755 5.79061671275515 76.7098510139013 145.130166507273)" fill="#000000" fill-rule="evenodd" stroke="#000000" stroke-width="0.24336" stroke-linecap="square" stroke-linejoin="bevel" width="0.504000000000001" height="0.143999999999998" rx="0.144" ry="0.071999999999999"/><path id="shape39" transform="matrix(5.42466237717291 0 0 5.61368032401432 122.161691499533 81.1876704376673)" fill="none" stroke="#000000" stroke-width="0.24336" stroke-linecap="square" stroke-linejoin="miter" stroke-miterlimit="2" d="M0 0L1.75065 0" sodipodi:nodetypes="cc"/><path id="shape40" transform="matrix(5.42466237717291 0 0 5.61368032401432 120.947610247019 32.1064285235093)" fill="none" stroke="#000000" stroke-width="0.24336" stroke-linecap="square" stroke-linejoin="miter" stroke-miterlimit="2" d="M0 0L1.44407 5.38933" sodipodi:nodetypes="cc"/><path id="shape42" transform="matrix(5.42466237717291 0 0 5.61368032401432 128.725223186484 32.0605187397989)" fill="none" stroke="#000000" stroke-width="0.24336" stroke-linecap="square" stroke-linejoin="miter" stroke-miterlimit="2" d="M0 5.5248L1.48037 0" sodipodi:nodetypes="cc"/><path id="shape43" transform="matrix(5.42466237717291 0 0 5.61368032401432 136.808782338837 31.9983351445386)" fill="none" stroke="#000000" stroke-width="0.24336" stroke-linecap="square" stroke-linejoin="miter" stroke-miterlimit="2" d="M0 0L0 10.8358" sodipodi:nodetypes="cc"/><path id="shape44" transform="matrix(5.42466237717291 0 0 5.61368032401432 136.850572335408 92.9697608429794)" fill="none" stroke="#000000" stroke-width="0.24336" stroke-linecap="square" stroke-linejoin="miter" stroke-miterlimit="2" d="M0 0L1.60764 0" sodipodi:nodetypes="cc"/><path id="shape45" transform="matrix(5.42466237717291 0 0 5.61368032401432 107.181390178223 32.4917031028424)" fill="none" stroke="#000000" stroke-width="0.24336" stroke-linecap="square" stroke-linejoin="miter" stroke-miterlimit="2" d="M4.56234 8.67934L4.53986 9.74354C3.8866 10.166 3.26702 10.3914 2.68112 10.4197C2.31431 10.497 1.79233 10.3521 1.11519 9.98484C0.60734 9.70941 0.456371 9.38116 0.101041 8.80816C-0.0261669 8.07707 -0.00856805 8.1796 0.0221261 7.6889C0.0835144 6.70752 0.59573 6.17647 1.37796 5.88986C1.89945 5.69879 2.29025 5.59364 2.55036 5.57443L2.55394 0" sodipodi:nodetypes="ccczczzcc"/><ellipse id="shape46" transform="matrix(5.42466237717291 0 0 5.61368032401432 148.468239637964 92.3065687674032)" rx="0.143999999999998" ry="0.107999999999997" cx="0.143999999999998" cy="0.107999999999997" fill="none" stroke="#000000" stroke-width="0.24336" stroke-linecap="square" stroke-linejoin="bevel"/><path id="shape47" transform="matrix(3.90483503957899 0.360458012968209 -0.333334418787046 4.26019924150596 36.6723676130804 99.6235900802935)" fill="none" stroke="#000000" stroke-width="0.24336" stroke-linecap="square" stroke-linejoin="bevel" d="M0 1.74345L0.180507 0.0290143C1.11313 -0.0715961 1.73533 0.0894522 2.04712 0.512159C2.5148 1.14622 2.24404 1.7945 1.65328 1.87849C1.06253 1.96249 0.70562 2.14529 0 1.74345Z" sodipodi:nodetypes="cczcc"/><path id="shape48" transform="matrix(3.90483503957899 0.360458012968209 -0.333334418787046 4.26019924150596 33.4177518134506 90.9756122967602)" fill="#000000" fill-rule="evenodd" stroke="#000000" stroke-width="0.24336" stroke-linecap="square" stroke-linejoin="bevel" d="M1.05032 0L2.84915 0.290073C4.05991 0.7733 4.72382 1.53741 4.84088 2.58241C5.01648 4.14991 4.73012 4.28347 4.59044 4.51703C4.45077 4.75059 4.30466 4.98865 3.8563 5.31993C3.25848 5.76164 2.66363 5.77702 2.07173 5.36606L0 5.45463L0.838949 3.64823L1.63482 4.02833L3.04401 3.8512L3.31272 3.06215L3.17119 2.42675L2.48608 1.84737L1.65534 1.77726L0.576393 2.01713C0.576393 2.00237 0.734369 1.32999 1.05032 0Z" sodipodi:nodetypes="cczczccccccccccc"/><path id="shape03" transform="matrix(5.33821525178691 0.500377848899433 -0.472080599012046 5.51868044753753 165.34237392179 100.560576833919)" fill="none" stroke="#000000" stroke-width="0.24336" stroke-linecap="square" stroke-linejoin="miter" stroke-miterlimit="2" d="M0 9.02983L0.0289758 0" sodipodi:nodetypes="cc"/><path id="shape113" transform="matrix(5.33821525178691 0.500377848899433 -0.472080599012046 5.51868044753753 161.110956418905 150.867294667637)" fill="none" stroke="#000000" stroke-width="0.24336" stroke-linecap="square" stroke-linejoin="miter" stroke-miterlimit="2" d="M0 0L1.25857 0.00744706" sodipodi:nodetypes="cc"/><path id="shape211" transform="matrix(5.33821525178691 0.500377848899433 -0.472080599012046 5.51868044753753 172.123497428032 101.92677773055)" fill="none" stroke="#000000" stroke-width="0.24336" stroke-linecap="square" stroke-linejoin="miter" stroke-miterlimit="2" d="M3.55271e-15 9.00063L0 0" sodipodi:nodetypes="cc"/><path id="shape310" transform="matrix(5.33821525178691 0.500377848899433 -0.472080599012046 5.51868044753753 165.649430646975 100.589358809989)" fill="none" stroke="#000000" stroke-width="0.24336" stroke-linecap="square" stroke-linejoin="miter" stroke-miterlimit="2" d="M0 0L1.09575 0" sodipodi:nodetypes="cc"/><path id="shape49" transform="matrix(5.33821525178691 0.500377848899433 -0.472080599012046 5.51868044753753 170.193944729527 125.8831035665)" fill="#000000" fill-rule="evenodd" stroke="#000000" stroke-width="0.24336" stroke-linecap="square" stroke-linejoin="miter" stroke-miterlimit="2" d="M0 0L2.58578 4.4787" sodipodi:nodetypes="cc"/><path id="shape52" transform="matrix(5.33821525178691 0.500377848899433 -0.472080599012046 5.51868044753753 182.035923602108 152.137143905098)" fill="none" stroke="#000000" stroke-width="0.24336" stroke-linecap="square" stroke-linejoin="miter" stroke-miterlimit="2" d="M0 0L1.29062 0" sodipodi:nodetypes="cc"/><path id="shape62" transform="matrix(5.33821525178691 0.500377848899433 -0.472080599012046 5.51868044753753 174.824431133231 119.376141824704)" fill="#000000" fill-rule="evenodd" stroke="#000000" stroke-width="0.24336" stroke-linecap="square" stroke-linejoin="miter" stroke-miterlimit="2" d="M3.41656 5.74271L0 0" sodipodi:nodetypes="cc"/><rect id="shape72" transform="matrix(5.33821525178691 0.500377848899433 -0.472080599012046 5.51868044753753 165.437201220908 100.569465475105)" fill="#000000" fill-rule="evenodd" stroke="#000000" stroke-width="0.24336" stroke-linecap="square" stroke-linejoin="bevel" width="1.224" height="9.072" rx="0.144" ry="0.144"/><rect id="shape82" transform="matrix(5.33821525178691 0.500377848899433 -0.472080599012046 5.51868044753753 169.853345231395 121.410495360394)" fill="#000000" fill-rule="evenodd" stroke="#000000" stroke-width="0.24336" stroke-linecap="square" stroke-linejoin="bevel" width="1e-06" height="0.0720000000000027" rx="5e-07" ry="0.0360000000000014"/><path id="shape92" transform="matrix(5.33821525178691 0.500377848899433 -0.472080599012046 5.51868044753753 169.58088812787 121.720615946474)" fill="#000000" fill-rule="evenodd" stroke="#000000" stroke-width="0.24336" stroke-linecap="square" stroke-linejoin="bevel" d="M0.160359 0.865492L2.83302 5.18628L4.2718 5.21566L1.34672 0.0400691L0 0Z" sodipodi:nodetypes="cccccc"/><path id="shape102" transform="matrix(3.56645443335244 0 0 3.93958938279717 171.317721310292 108.801624921528)" fill="none" stroke="#000000" stroke-width="0.24336" stroke-linecap="square" stroke-linejoin="bevel" d="M0 1.74345L0.180507 0.0290143C1.11313 -0.0715961 1.73533 0.0894522 2.04712 0.512159C2.5148 1.14622 2.24404 1.7945 1.65328 1.87849C1.06253 1.96249 0.70562 2.14529 0 1.74345Z" sodipodi:nodetypes="cczcc"/><path id="shape114" transform="matrix(3.56645443335244 0 0 3.93958938279717 167.752873471309 101.137648892459)" fill="#000000" fill-rule="evenodd" stroke="#000000" stroke-width="0.24336" stroke-linecap="square" stroke-linejoin="bevel" d="M1.05032 0L2.84915 0.290073C4.05991 0.7733 4.72382 1.53741 4.84088 2.58241C5.01648 4.14991 4.73012 4.28347 4.59044 4.51703C4.45077 4.75059 4.30466 4.98865 3.8563 5.31993C3.25848 5.76164 2.66363 5.77702 2.07173 5.36606L0 5.45463L0.838949 3.64823L1.63482 4.02833L3.04401 3.8512L3.31272 3.06215L3.17119 2.42675L2.48608 1.84737L1.65534 1.77726L0.576393 2.01713C0.576393 2.00237 0.734369 1.32999 1.05032 0Z" sodipodi:nodetypes="cczczccccccccccc"/>
</svg>
