<?xml version="1.0" standalone="no"?>
<!DOCTYPE svg PUBLIC "-//W3C//DTD SVG 20010904//EN" "http://www.w3.org/TR/2001/REC-SVG-20010904/DTD/svg10.dtd">
<!-- Created using Krita: https://krita.org -->
<svg xmlns="http://www.w3.org/2000/svg" 
    xmlns:xlink="http://www.w3.org/1999/xlink"
    xmlns:krita="http://krita.org/namespaces/svg/krita"
    xmlns:sodipodi="http://sodipodi.sourceforge.net/DTD/sodipodi-0.dtd"
    width="77.76pt"
    height="77.76pt"
    viewBox="0 0 77.76 77.76">
<defs/>
<path id="shape0" transform="matrix(7.87701815171098 1.14871091430577 -1.33558154057526 6.29307321456303 27.7268741926596 11.909871456902)" fill="none" stroke="#000000" stroke-width="0.24336" stroke-linecap="square" stroke-linejoin="miter" stroke-miterlimit="2" d="M0 9.02983L0.0289758 0" sodipodi:nodetypes="cc"/><path id="shape1" transform="matrix(7.87701815171098 1.14871091430577 -1.33558154057526 6.29307321456303 15.6590141848354 69.2834614353569)" fill="none" stroke="#000000" stroke-width="0.24336" stroke-linecap="square" stroke-linejoin="miter" stroke-miterlimit="2" d="M0 0L1.25857 0.00744706" sodipodi:nodetypes="cc"/><path id="shape2" transform="matrix(7.87701815171098 1.14871091430577 -1.33558154057526 6.29307321456303 37.649116751783 14.2088780932494)" fill="none" stroke="#000000" stroke-width="0.24336" stroke-linecap="square" stroke-linejoin="miter" stroke-miterlimit="2" d="M3.55271e-15 9.00063L0 0" sodipodi:nodetypes="cc"/><path id="shape3" transform="matrix(7.87701815171098 1.14871091430577 -1.33558154057526 6.29307321456303 28.1799640895272 11.9759458647122)" fill="none" stroke="#000000" stroke-width="0.24336" stroke-linecap="square" stroke-linejoin="miter" stroke-miterlimit="2" d="M0 0L1.09575 0" sodipodi:nodetypes="cc"/><path id="shape4" transform="matrix(7.87701815171098 1.14871091430577 -1.33558154057526 6.29307321456303 32.0293778771582 41.5396686217995)" fill="#000000" fill-rule="evenodd" stroke="#000000" stroke-width="0.24336" stroke-linecap="square" stroke-linejoin="miter" stroke-miterlimit="2" d="M0 0L2.58578 4.4787" sodipodi:nodetypes="cc"/><path id="shape5" transform="matrix(7.87701815171098 1.14871091430577 -1.33558154057526 6.29307321456303 46.6151258966857 72.9912788073697)" fill="none" stroke="#000000" stroke-width="0.24336" stroke-linecap="square" stroke-linejoin="miter" stroke-miterlimit="2" d="M0 0L1.29062 0" sodipodi:nodetypes="cc"/><path id="shape6" transform="matrix(7.87701815171098 1.14871091430577 -1.33558154057526 6.29307321456303 39.6593537696961 34.5573192123908)" fill="#000000" fill-rule="evenodd" stroke="#000000" stroke-width="0.24336" stroke-linecap="square" stroke-linejoin="miter" stroke-miterlimit="2" d="M3.41656 5.74271L0 0" sodipodi:nodetypes="cc"/><rect id="shape7" transform="matrix(7.87701815171098 1.14871091430577 -1.33558154057526 6.29307321456303 27.8668004266536 11.9302769947694)" fill="#000000" fill-rule="evenodd" stroke="#000000" stroke-width="0.24336" stroke-linecap="square" stroke-linejoin="bevel" width="1.224" height="9.072" rx="0.144" ry="0.144"/><rect id="shape8" transform="matrix(7.87701815171098 1.14871091430577 -1.33558154057526 6.29307321456303 32.0368699204329 36.3617568119244)" fill="#000000" fill-rule="evenodd" stroke="#000000" stroke-width="0.24336" stroke-linecap="square" stroke-linejoin="bevel" width="1e-06" height="0.0720000000000027" rx="5e-07" ry="0.0360000000000014"/><path id="shape9" transform="matrix(7.87701815171098 1.14871091430577 -1.33558154057526 6.29307321456303 31.5962794960816 36.6889723960879)" fill="#000000" fill-rule="evenodd" stroke="#000000" stroke-width="0.24336" stroke-linecap="square" stroke-linejoin="bevel" d="M0.160359 0.865492L2.83302 5.18628L4.2718 5.21566L1.34672 0.0400691L0 0Z" sodipodi:nodetypes="cccccc"/><path id="shape47" transform="matrix(5.30102468830683 0.383168165534678 -0.452519495840994 4.52860713162737 35.6617689341181 22.0250306693038)" fill="none" stroke="#000000" stroke-width="0.24336" stroke-linecap="square" stroke-linejoin="bevel" d="M0 1.74345L0.180507 0.0290143C1.11313 -0.0715961 1.73533 0.0894522 2.04712 0.512159C2.5148 1.14622 2.24404 1.7945 1.65328 1.87849C1.06253 1.96249 0.70562 2.14529 0 1.74345Z" sodipodi:nodetypes="cczcc"/><path id="shape48" transform="matrix(5.30102468830683 0.383168165534678 -0.452519495840994 4.52860713162737 31.2434520193399 12.832199150274)" fill="#000000" fill-rule="evenodd" stroke="#000000" stroke-width="0.24336" stroke-linecap="square" stroke-linejoin="bevel" d="M1.05032 0L2.84915 0.290073C4.05991 0.7733 4.72382 1.53741 4.84088 2.58241C5.01648 4.14991 4.73012 4.28347 4.59044 4.51703C4.45077 4.75059 4.30466 4.98865 3.8563 5.31993C3.25848 5.76164 2.66363 5.77702 2.07173 5.36606L0 5.45463L0.838949 3.64823L1.63482 4.02833L3.04401 3.8512L3.31272 3.06215L3.17119 2.42675L2.48608 1.84737L1.65534 1.77726L0.576393 2.01713C0.576393 2.00237 0.734369 1.32999 1.05032 0Z" sodipodi:nodetypes="cczczccccccccccc"/><path id="shape10" transform="matrix(1.56233039129004 0 0 1.57372817133283 4.32532903035959 3.71563412044639)" fill="#000000" fill-rule="evenodd" stroke="#000000" stroke-width="0.864" stroke-linecap="square" stroke-linejoin="bevel" d="M19.0366 7.50887L15.4408 0L2.22093 2.22093L0 17.4502L7.72039 7.82615Z" sodipodi:nodetypes="cccccc"/><path id="shape11" transform="matrix(1.56233039129004 0 0 1.57372817133283 41.1103634675368 3.04989187532246)" fill="#000000" fill-rule="evenodd" stroke="#000000" stroke-width="0.864" stroke-linecap="square" stroke-linejoin="bevel" d="M0 7.72039L5.96172 0L20.1334 3.5958L20.9795 17.3444L14.9512 9.20101L8.60569 6.98008L6.279 11.3162Z" sodipodi:nodetypes="cccccccc"/>
</svg>
